<svg width="28" height="28" viewBox="0 0 28 28" xmlns="http://www.w3.org/2000/svg">
    <path
        d="M6.66165 0.0533314C5.74846 0.162727 4.67122 0.518267 3.85099 0.9832C1.72932 2.20297 0.32946 4.32526 0.0615174 6.73745C-0.0205058 7.46494 -0.0205058 20.5269 0.0615174 21.2543C0.449761 24.7714 3.22761 27.5501 6.74368 27.9385C7.47095 28.0205 20.529 28.0205 21.2563 27.9385C24.7724 27.5501 27.5502 24.7714 27.9385 21.2543C28.0205 20.5269 28.0205 7.46494 27.9385 6.73745C27.5502 3.22036 24.7724 0.441689 21.2563 0.0533314C20.6111 -0.0177765 7.2905 -0.0177765 6.66165 0.0533314ZM22.4757 3.72358C23.296 3.96972 23.9248 4.69174 24.0615 5.5505C24.2256 6.56242 23.6077 7.61809 22.6343 7.98457C21.8031 8.30182 20.8134 8.07755 20.2119 7.43212C18.9487 6.08107 19.7307 3.89861 21.5735 3.64153C21.7922 3.61418 22.2351 3.65247 22.4757 3.72358ZM15.0062 6.4202C16.6958 6.64446 18.1613 7.37195 19.3917 8.60266C22.3992 11.6111 22.3992 16.3807 19.3917 19.3891C16.3841 22.3975 11.6159 22.3975 8.60834 19.3891C5.60082 16.3807 5.60082 11.6111 8.60834 8.60266C10.3308 6.88513 12.622 6.10295 15.0062 6.4202Z"
        fill="black" />
    <path
        d="M21.6829 5.28259C21.5079 5.32635 21.2782 5.57796 21.24 5.76941C21.1962 6.02102 21.3438 6.30545 21.5845 6.42032C21.836 6.54065 22.0821 6.49142 22.2844 6.28357C22.5305 6.02649 22.4812 5.57249 22.186 5.38652C22.0383 5.29353 21.8305 5.24978 21.6829 5.28259Z"
        fill="white" />
    <path
        d="M13.0923 8.06095C11.8182 8.25786 10.6808 8.83766 9.76211 9.75659C7.40531 12.1086 7.40531 15.8828 9.76211 18.2348C12.1134 20.5923 15.8865 20.5923 18.2378 18.2348C20.5946 15.8828 20.5946 12.1086 18.2378 9.75659C16.8763 8.39461 14.9733 7.76558 13.0923 8.06095Z"
        fill="black" />
</svg>