<svg width="28" height="28" viewBox="0 0 28 28" xmlns="http://www.w3.org/2000/svg">
<path d="M26.086 2.48283C24.2266 3.16642 1.28517 11.9766 0.946107 12.1406C-0.174987 12.6711 -0.306237 13.3711 0.628919 13.8469C0.721888 13.8961 2.26954 14.3883 4.0797 14.9516L7.36642 15.9742L14.8258 11.3039C18.9328 8.73907 22.3727 6.60626 22.4711 6.57345C22.7281 6.48595 22.9469 6.49142 23.0453 6.59532C23.1164 6.66642 23.1219 6.69923 23.0617 6.80314C23.0289 6.87423 20.3 9.35157 17.0078 12.3047C13.7156 15.2633 11.0086 17.7024 10.9977 17.7297C10.9867 17.757 10.8774 19.2336 10.7516 21.011L10.5219 24.2375L10.7735 24.2047C10.9102 24.1883 11.1235 24.1172 11.2492 24.0461C11.3805 23.9805 12.2336 23.2039 13.1578 22.3235C14.0766 21.443 14.8641 20.7047 14.9024 20.6938C14.9406 20.6774 16.4063 21.7164 18.1617 23.0016C19.9117 24.2867 21.4813 25.3969 21.6508 25.4735C22.0938 25.6813 22.586 25.6977 22.9086 25.5281C23.1985 25.375 23.4774 24.9922 23.5977 24.593C23.6414 24.4399 24.6477 19.8078 25.8235 14.3008C27.7867 5.13517 27.9672 4.24923 27.9672 3.77345C27.9672 3.32501 27.9508 3.21564 27.8305 2.98048C27.7485 2.81095 27.6008 2.64142 27.4586 2.54298C27.136 2.31876 26.6 2.29142 26.086 2.48283Z" fill="black"/>
</svg>
