<svg width="152" height="173" viewBox="0 0 152 173" fill="none" xmlns="http://www.w3.org/2000/svg">
<path d="M0 0V8.2175L29.8571 58.82L7.2381 34.6H0L24.4286 65.74L3.61905 51.9V58.82L25.3333 77.4175L10.8854 72.66L12.6667 79.58L34.8333 93.42H21.7143L18.0952 98.61L39.8095 105.53L28.9524 108.99L32.5714 114.18H47.0406L39.8095 117.64V124.56L50.6667 119.803L43.4215 125.77L49.3095 128.02L52.9286 126.723L50.6667 129.75H54.2786L57.8977 128.02L57.9048 131.48L61.5167 129.318L63.7857 131.48L68.7619 124.56L62.881 141.86L64.2381 145.32L66.9524 140.995V156.998L70.119 159.16L72.381 148.78V173L79.619 171.27L79.612 148.78L81.8739 159.16L85.0406 156.998V140.995L87.7619 145.32L89.112 141.86L83.231 124.56L88.2072 131.48L90.4762 129.318L94.0882 131.48L94.0952 128.02L97.7143 129.75H101.326L99.0644 126.723L102.683 128.02L108.564 125.77L101.326 119.803L112.183 124.56V117.64L104.952 114.18H119.422L123.041 108.99L112.183 105.53L133.898 98.61L130.279 93.42H117.16L139.326 79.58L141.108 72.66L126.66 77.4175L148.374 58.82V51.9L127.564 65.74L152 34.6H144.755L122.136 58.82L151.993 8.2175L152 0L84.1358 96.88L80.0644 89.96H71.9286L67.8571 96.88L0 0Z" fill="#CFCFCF"/>
</svg>
