<svg width="40" height="40" viewBox="0 0 40 40" fill="none" xmlns="http://www.w3.org/2000/svg">
<path d="M9.42009 4.06085C9.01374 4.11712 8.73242 4.28591 8.58863 4.56098C8.45735 4.82354 8.37608 5.61749 8.37608 6.71776C8.37608 10.5937 9.60764 13.5007 11.902 15.0261C13.5023 16.0888 15.5341 16.6265 18.0472 16.6452L19.0662 16.6515V20.3774V24.1033L18.6224 24.1471C16.9532 24.3034 14.9277 25.1098 13.4461 26.2101L12.996 26.5414L12.1708 26.5789C10.4954 26.6477 9.07 27.1103 7.68841 28.0293C7.07576 28.4356 5.85046 29.6547 5.45661 30.2486C4.53138 31.6364 4 33.2868 4 34.7809C4 35.4686 4.06877 35.6562 4.4126 35.8812C4.58765 35.9937 5.01275 36 20.004 36C34.9952 36 35.4203 35.9937 35.5953 35.8812C35.9329 35.6562 36.0079 35.4686 36.0079 34.8122C36.0079 33.2868 35.4828 31.6427 34.5513 30.2486C34.1387 29.6297 32.9196 28.4231 32.2882 28.0043C30.9254 27.1103 29.4875 26.6477 27.8371 26.5789L27.0119 26.5414L26.5618 26.2101C25.0802 25.1036 23.061 24.3034 21.3855 24.1471L20.9417 24.1033V20.3774V16.6515L21.9607 16.6452C26.1492 16.614 29.0437 15.1386 30.4753 12.3004C31.0442 11.1814 31.4255 9.75601 31.5756 8.21188C31.6631 7.34291 31.6131 5.15487 31.5005 4.77353C31.4193 4.48596 31.0942 4.15463 30.8379 4.09211C30.494 4.00459 27.7871 3.97333 27.1182 4.04835C25.2052 4.26715 23.6048 4.81729 22.3358 5.69251C21.5481 6.23639 20.5353 7.39918 20.154 8.19312C20.0915 8.32441 20.0227 8.43068 20.004 8.43068C19.9852 8.43068 19.9164 8.32441 19.8539 8.19312C19.4726 7.39918 18.4598 6.23639 17.6721 5.69251C16.4531 4.84855 14.9652 4.32342 13.171 4.08586C12.3708 3.98584 10.064 3.96708 9.42009 4.06085ZM12.971 6.03009C15.9717 6.44269 17.7409 7.73676 18.5661 10.1186C18.9287 11.1751 19.0162 11.7565 19.0475 13.2569L19.0787 14.676L18.9037 14.7197C18.6599 14.7823 17.0907 14.701 16.3468 14.5885C14.5088 14.3071 13.2273 13.7382 12.252 12.7505C10.9955 11.4814 10.4141 9.76226 10.3328 7.10536L10.2953 5.93632L10.6954 5.91756C11.3581 5.8863 12.2458 5.93007 12.971 6.03009ZM29.375 5.93007H29.7126L29.6751 7.0991C29.6126 9.13086 29.2812 10.4999 28.5436 11.7753C28.2372 12.3066 27.3058 13.2506 26.8056 13.5444C25.9617 14.0446 24.8677 14.4072 23.6611 14.5885C22.9297 14.701 21.348 14.7823 21.1105 14.7197L20.9417 14.6822V13.5007C20.9417 11.0563 21.5356 9.19962 22.7234 7.93681C23.5611 7.04284 24.9614 6.38018 26.6493 6.0801C27.2307 5.98008 28.6811 5.86755 28.9124 5.90506C28.9812 5.91756 29.1875 5.93007 29.375 5.93007ZM21.7544 26.1538C23.2235 26.4726 24.6739 27.1603 25.7241 28.0418C26.3055 28.5232 26.2868 28.5169 27.4746 28.5294C28.406 28.5419 28.6123 28.5607 29.1562 28.7044C30.6753 29.1108 32.0819 30.1048 32.9509 31.3801C33.4385 32.1053 34.0074 33.5119 34.0074 34.012C34.0074 34.1183 33.4823 34.1245 20.004 34.1245C6.52562 34.1245 6.00049 34.1183 6.00049 34.012C6.00049 33.5119 6.56939 32.1053 7.05701 31.3801C7.92597 30.1048 9.33257 29.1108 10.8517 28.7044C11.3956 28.5607 11.6019 28.5419 12.5334 28.5294C13.7212 28.5169 13.7024 28.5232 14.2838 28.0418C15.5278 27.004 17.172 26.2976 18.9725 26.035C19.3913 25.9725 21.298 26.0538 21.7544 26.1538Z" fill="black"/>
</svg>
