<svg width="40" height="40" viewBox="0 0 40 40" fill="none" xmlns="http://www.w3.org/2000/svg">
<g clip-path="url(#clip0_2807_7288)">
<path d="M34.3991 2.3401C34.7514 2.64548 34.8767 2.9587 34.8219 3.41286C34.7671 3.91401 34.3443 4.32902 33.7961 4.40732C33.4672 4.46213 33.4281 4.48563 33.4594 4.6344C33.4829 4.72837 33.7883 7.38287 34.1485 10.5385L34.7984 16.2704L35.511 16.5131C37.0614 17.0456 39.4262 18.4159 39.8803 19.0502C40.0056 19.2224 40.0526 19.4104 40.0526 19.7001C40.0526 20.6632 39.0268 21.1957 38.236 20.6397C36.388 19.3321 35.1351 18.7369 33.4124 18.3533C32.5198 18.1497 30.2724 18.1105 29.2702 18.2671C25.167 18.9484 21.7217 21.8456 20.367 25.7608C19.8424 27.2721 19.6231 29.2375 19.8032 30.7096C19.9207 31.6101 19.858 31.892 19.4587 32.2444C19.0985 32.5576 18.7304 32.6202 18.2841 32.448C17.8065 32.2679 17.6185 31.9782 17.5089 31.2499L17.4149 30.647L16.3422 30.6235L15.2772 30.6L15.3164 31.4848C15.3555 32.1974 15.332 32.5184 15.2068 33.1214C14.6743 35.6741 12.7402 37.6865 10.2345 38.2816C9.35746 38.493 8.02629 38.493 7.14928 38.2816C4.64356 37.6865 2.70945 35.6741 2.17698 33.1449C2.05169 32.5184 2.0282 32.2052 2.06736 31.4848L2.10651 30.6078H1.45658C0.908457 30.6078 0.767509 30.5765 0.540428 30.4277C-0.0233607 30.0519 0.000130494 30.3573 0.000130494 24.0694C0.000130494 17.7816 -0.0233607 18.087 0.540428 17.7112C0.798831 17.5389 0.853644 17.5311 2.8269 17.5311H4.85498V15.2759C4.85498 13.5924 4.83149 12.9894 4.75318 12.8955C4.68271 12.7937 4.47129 12.7624 3.86052 12.7389C3.21059 12.7154 3.02266 12.6841 2.84256 12.5509C2.11434 12.0028 2.09868 11.0632 2.81124 10.5855C3.05399 10.4211 3.17144 10.4054 4.04062 10.4054C4.81582 10.4054 5.08989 10.4367 5.43443 10.562C5.91208 10.7421 6.49936 11.2276 6.77342 11.6583C7.16494 12.2769 7.2041 12.6057 7.2041 15.1585V17.5311H10.2893H13.3744L13.5311 16.9203C13.8051 15.8945 16.6789 4.54044 16.6789 4.49346C16.6789 4.46996 16.5144 4.4543 16.303 4.4543C15.7001 4.44647 15.3477 4.32902 15.0423 4.03146C14.7761 3.76523 14.7604 3.71825 14.7604 3.23276C14.7604 2.73162 14.7683 2.71596 15.0893 2.41057L15.4182 2.10518H24.7755H34.1328L34.3991 2.3401ZM23.3347 10.9927V17.5311H23.8437C24.2979 17.5311 24.4388 17.4919 25.0809 17.1709C26.8427 16.2782 28.9256 15.8084 31.0555 15.8084H32.3397V15.6205C32.3397 15.4325 31.2121 5.46443 31.1181 4.78318L31.0711 4.4543H27.2029H23.3347V10.9927ZM19.1063 4.48563C19.1063 4.50129 18.3624 7.42985 17.4619 10.9927C16.5536 14.5555 15.8175 17.4841 15.8175 17.4997C15.8175 17.5154 16.9764 17.5311 18.4016 17.5311H20.9856V10.9927V4.4543H20.0459C19.5291 4.4543 19.1063 4.46996 19.1063 4.48563ZM2.34925 24.0694V28.2587H2.71728C3.07748 28.2509 3.10097 28.2431 3.35937 27.8672C3.89967 27.0685 4.9646 26.215 6.00605 25.7373C7.67392 24.9856 9.88209 25.0169 11.55 25.8313C12.5601 26.3168 13.719 27.2956 14.1497 28.0316L14.2828 28.2587H15.8723H17.4619V28.0786C17.4619 27.7419 17.7125 26.4186 17.9082 25.753C18.4877 23.7327 19.6309 21.6655 20.9308 20.2874L21.3223 19.8802H11.8319H2.34925V24.0694ZM7.55646 27.6793C5.7633 28.1413 4.38515 29.9422 4.38515 31.8215C4.38515 33.7713 5.8651 35.6115 7.74439 36.0186C8.36299 36.1518 9.56888 36.0734 10.1405 35.8699C12.0433 35.173 13.2257 33.2154 12.9359 31.2108C12.701 29.5742 11.4168 28.0943 9.86643 27.6793C9.29481 27.5227 8.13591 27.5227 7.55646 27.6793Z" fill="black"/>
<path d="M9.32616 30.8663C9.63154 31.0699 9.86646 31.4849 9.86646 31.8216C9.86646 31.9469 9.80381 32.1818 9.72551 32.3306C9.3105 33.1684 8.07329 33.1684 7.65828 32.3306C7.26676 31.5632 7.82272 30.6862 8.6919 30.6862C8.94247 30.6862 9.14606 30.741 9.32616 30.8663Z" fill="black"/>
<path d="M32.9585 20.6711C36.49 21.4306 39.2307 24.2339 39.9432 27.828C40.0842 28.5171 40.0842 30.4825 39.951 31.1168C39.5595 32.9491 38.706 34.5544 37.4531 35.7994C35.6522 37.5769 33.5849 38.4382 31.087 38.4382C28.5813 38.4382 26.5219 37.5847 24.7288 35.8072C22.4579 33.5521 21.5731 30.279 22.3953 27.1468C23.194 24.0851 25.7076 21.5794 28.7927 20.765C29.8733 20.4831 31.8701 20.4362 32.9585 20.6711ZM29.5366 23.0124C26.0991 23.8345 23.8987 27.2329 24.5565 30.694C25.0341 33.2467 27.0152 35.3296 29.521 35.9325C30.4215 36.1439 31.7448 36.1439 32.6296 35.9325C34.6264 35.4549 36.2316 34.1315 37.1086 32.2366C38.0561 30.1928 37.9151 27.9377 36.7093 25.9331C35.8949 24.5706 34.2975 23.4117 32.6923 23.0202C31.8153 22.8088 30.4136 22.8009 29.5366 23.0124Z" fill="black"/>
<path d="M32.1439 25.291C33.2559 25.5572 34.3834 26.4812 34.9237 27.5775C36.0591 29.8796 34.9472 32.6437 32.5355 33.5207C31.9638 33.7243 30.7501 33.8026 30.1394 33.6695C28.2522 33.2623 26.7801 31.43 26.7801 29.4724C26.7801 27.5775 28.1504 25.7921 29.9514 25.3223C30.4604 25.1892 31.6428 25.1735 32.1439 25.291ZM30.3195 27.6793C29.6617 27.9533 29.1292 28.752 29.1292 29.4724C29.1292 30.1928 29.6617 30.9915 30.3195 31.2656C30.6797 31.4222 31.4784 31.43 31.8229 31.2812C32.1909 31.1325 32.6373 30.7096 32.833 30.3416C33.0679 29.8953 33.0679 29.0496 32.833 28.6111C32.6216 28.2195 32.2222 27.8359 31.8699 27.6793C31.5097 27.5226 30.6875 27.5226 30.3195 27.6793Z" fill="black"/>
</g>
<defs>
<clipPath id="clip0_2807_7288">
<rect width="40" height="40" fill="white"/>
</clipPath>
</defs>
</svg>
