<svg width="40" height="40" viewBox="0 0 40 40" fill="none" xmlns="http://www.w3.org/2000/svg">
<path d="M10.7264 2.62942C10.2207 2.95746 9.63291 3.9416 9.46888 4.74121C9.19551 6.01922 9.50989 7.16738 10.4325 8.28136C11.2526 9.2655 11.2731 10.0788 10.494 11.0356C10.2822 11.2953 10.2548 11.3773 10.2548 11.719C10.2548 12.3819 10.6239 12.7578 11.2663 12.7578C11.7379 12.7578 11.9634 12.6211 12.3529 12.1086C13.2756 10.8921 13.4396 9.31334 12.7903 7.96015C12.681 7.72095 12.3871 7.29039 12.1343 6.98968C11.3073 5.99871 11.2868 5.18544 12.0659 4.22864C12.2778 3.96894 12.3051 3.88692 12.3051 3.54521C12.3051 3.10782 12.1753 2.84811 11.854 2.63625C11.5943 2.46539 10.9724 2.45856 10.7264 2.62942Z" fill="black"/>
<path d="M16.8772 2.62942C16.3647 2.9643 15.7906 3.93476 15.6197 4.74804C15.3464 6.01922 15.6607 7.17421 16.5765 8.27453C17.4035 9.2655 17.424 10.0788 16.6449 11.0356C16.433 11.2953 16.4057 11.3773 16.4057 11.719C16.4057 12.3819 16.7747 12.7578 17.4171 12.7578C17.8887 12.7578 18.1142 12.6211 18.5038 12.1086C19.4264 10.8921 19.5904 9.31334 18.9412 7.96015C18.8318 7.72095 18.538 7.29039 18.2851 6.98968C17.4581 5.99871 17.4376 5.18544 18.2168 4.22864C18.4286 3.96894 18.456 3.88692 18.456 3.54521C18.456 3.10782 18.3261 2.84811 18.0049 2.63625C17.7452 2.46539 17.1233 2.45856 16.8772 2.62942Z" fill="black"/>
<path d="M23.0281 2.62942C22.5155 2.9643 21.9415 3.93476 21.7706 4.74804C21.4972 6.01922 21.8116 7.17421 22.7274 8.27453C23.5544 9.2655 23.5749 10.0788 22.7957 11.0356C22.5839 11.2953 22.5565 11.3773 22.5565 11.719C22.5565 12.3819 22.9256 12.7578 23.568 12.7578C24.0396 12.7578 24.2651 12.6211 24.6547 12.1086C25.5773 10.8921 25.7413 9.31334 25.0921 7.96015C24.9827 7.72095 24.6888 7.29039 24.436 6.98968C23.609 5.99871 23.5885 5.18544 24.3676 4.22864C24.5795 3.96894 24.6068 3.88692 24.6068 3.54521C24.6068 3.10782 24.477 2.84811 24.1558 2.63625C23.8961 2.46539 23.2741 2.45856 23.0281 2.62942Z" fill="black"/>
<path d="M3.46158 15.0062C3.35223 15.0814 3.20188 15.2317 3.1267 15.3548C2.99685 15.5529 2.99685 15.6486 3.03102 16.9471C3.07203 18.478 3.18821 19.5305 3.49575 21.0614C4.25436 24.8544 5.7579 28.128 7.9517 30.7114L8.48477 31.347H6.11328C3.49575 31.347 3.45475 31.3538 3.16087 31.7775C2.83283 32.2696 2.99685 32.8847 3.74179 33.9371C5.01296 35.7346 7.03591 37.0194 9.1887 37.3953C10.0977 37.5525 24.764 37.5525 25.673 37.3953C28.1812 36.9579 30.4911 35.2835 31.653 33.076C31.9058 32.5908 31.9263 32.1124 31.7008 31.7775C31.4069 31.3538 31.3659 31.347 28.7416 31.347H26.3632L26.6844 30.9916C26.8553 30.7934 27.238 30.315 27.5251 29.9391L28.0445 29.2488L29.1448 29.2078C30.7577 29.1532 32.0083 28.8114 33.3274 28.0528C35.5963 26.7543 37.1272 24.7245 37.7765 22.1549C38.0088 21.2117 38.0772 19.6467 37.8995 19.1068C37.5851 18.1295 36.8607 17.3914 35.9039 17.0565C35.5622 16.9403 35.323 16.9266 33.6827 16.9266H31.8512V16.2227C31.8512 15.4573 31.776 15.2591 31.4001 15.0062C31.2087 14.8832 30.8055 14.8764 17.4308 14.8764C3.99465 14.8764 3.65294 14.8832 3.46158 15.0062ZM29.7325 17.1795C29.7325 17.6032 29.5343 19.2298 29.384 20.0704C28.5844 24.581 26.4794 28.5996 23.7115 30.9096L23.1853 31.347H17.4308H11.6764L11.1911 30.9437C8.44377 28.7021 6.28414 24.5879 5.47086 20.0704C5.33417 19.2845 5.12914 17.5691 5.12914 17.1453V16.9266H17.4308H29.7325V17.1795ZM35.4118 19.1614C35.8287 19.428 35.9107 19.6603 35.8629 20.5215C35.7262 23.0023 34.1406 25.3328 31.8443 26.4194C31.2019 26.727 30.3066 27.0004 29.712 27.0755L29.3156 27.1234L29.4182 26.891C29.4728 26.768 29.671 26.3238 29.8555 25.9137C30.5663 24.335 31.2156 22.148 31.5094 20.3096C31.5846 19.8175 31.6666 19.3186 31.6871 19.1956L31.7213 18.9633L33.4435 18.9906C35.0838 19.0111 35.1794 19.0179 35.4118 19.1614ZM28.598 33.6091C28.0376 34.2037 26.6981 34.9623 25.8028 35.2015C24.9759 35.4134 23.9166 35.4475 17.4308 35.4475C10.9451 35.4475 9.8858 35.4134 9.05885 35.2015C8.16356 34.9623 6.82404 34.2037 6.26363 33.6091L6.0586 33.3972H17.4308H28.8031L28.598 33.6091Z" fill="black"/>
</svg>
