<svg width="40" height="40" viewBox="0 0 40 40" fill="none" xmlns="http://www.w3.org/2000/svg">
<path d="M11.3307 2.11707C8.94475 2.78907 6.99668 5.45444 6.15856 9.1769C6.02265 9.78851 6 10.1358 6 11.5176C6 13.0353 6.0151 13.1863 6.20387 13.896C6.71731 15.7988 7.7895 17.2636 9.31473 18.1244L9.76776 18.3811L9.48084 27.6306C9.15616 37.9524 9.14861 37.3332 9.67716 38.0354C9.96408 38.4129 10.5228 38.8131 10.923 38.9264C11.2854 39.0245 13.46 39.0245 13.8225 38.9264C14.2226 38.8131 14.7814 38.4129 15.0683 38.0354C15.5968 37.3332 15.5893 37.9524 15.2646 27.6382L14.9777 18.3811L15.4383 18.1244C17.6053 16.9087 18.7908 14.5605 18.7908 11.4798C18.7908 7.39495 16.6011 3.31762 13.8376 2.26053C13.1806 2.00381 11.965 1.93585 11.3307 2.11707ZM13.5657 3.90657C15.0683 4.63898 16.4425 6.85886 16.9937 9.42607C17.2127 10.4681 17.2353 12.4086 17.0315 13.2693C16.8427 14.0622 16.5784 14.704 16.1707 15.308C15.6346 16.1235 15.1816 16.4633 13.7394 17.1353C13.309 17.3316 13.3166 16.8257 13.6412 27.1852C13.9659 37.5748 13.9735 37.0614 13.5129 37.2954C13.1882 37.4691 11.5573 37.4691 11.2326 37.2954C10.772 37.0614 10.772 37.5899 11.1042 27.1852C11.3685 18.7964 11.3911 17.6487 11.293 17.4448C11.1797 17.2108 11.1571 17.1957 10.3341 16.8181C9.03535 16.2292 8.14438 15.0362 7.71399 13.292C7.51768 12.4841 7.53278 10.4454 7.75175 9.42607C8.04622 8.05941 8.61252 6.69275 9.29962 5.66586C9.94143 4.70693 10.991 3.86126 11.7913 3.65739C12.2746 3.53658 13.0145 3.63474 13.5657 3.90657Z" fill="black" stroke="black" stroke-width="0.2"/>
<path d="M22.3396 2.08686C22.0602 2.20012 21.7506 2.5248 21.6676 2.78907C21.6223 2.91743 21.3353 4.90324 21.0182 7.20619C20.5199 10.8984 20.4519 11.5251 20.4519 12.552C20.4519 13.964 20.5652 14.5378 21.0182 15.4817C21.5845 16.6596 22.3849 17.4524 23.5854 18.0564L24.265 18.3962L23.978 27.6382C23.6534 37.9524 23.6458 37.3332 24.1744 38.0354C24.4613 38.4129 25.02 38.8131 25.4202 38.9264C25.7826 39.0245 27.9572 39.0245 28.3197 38.9264C28.7198 38.8131 29.2786 38.4129 29.5655 38.0354C30.0941 37.3332 30.0865 37.8919 29.7845 28.1818C29.6335 23.4023 29.5051 19.2419 29.4976 18.9399L29.4825 18.3962L30.1545 18.0564C31.3248 17.4675 32.1403 16.6671 32.6915 15.5572C33.1596 14.6058 33.288 13.964 33.288 12.5747C33.288 11.5176 33.2276 10.9286 32.7217 7.20619C32.4046 4.90324 32.1327 2.95518 32.1025 2.87213C32.027 2.6003 31.6872 2.21522 31.4305 2.10951C30.7887 1.83769 30.0865 2.08686 29.7694 2.69091C29.7165 2.80417 29.4976 4.14063 29.2861 5.67341C29.0747 7.19864 28.8935 8.45959 28.886 8.47469C28.8709 8.48224 28.6972 7.26659 28.5009 5.75647C28.1082 2.81927 28.0327 2.51725 27.6024 2.21522C27.255 1.96605 26.6208 1.9434 26.2357 2.16992C25.7071 2.47949 25.6467 2.69846 25.239 5.75647C25.0427 7.26659 24.869 8.48224 24.8539 8.47469C24.8464 8.45959 24.6652 7.19864 24.4537 5.67341C24.2423 4.14063 24.0309 2.81927 23.9856 2.72866C23.8648 2.48705 23.6081 2.23032 23.3815 2.10951C23.1475 1.9887 22.6189 1.98115 22.3396 2.08686ZM23.2456 8.76917C23.4495 10.3019 23.6534 11.6837 23.6987 11.8347C23.8346 12.3104 24.0611 12.4237 24.8766 12.4237C25.4957 12.4237 25.6014 12.401 25.7751 12.25C26.0243 12.0386 26.0318 12.0235 26.4622 8.77672C26.6661 7.29679 26.8473 6.08114 26.8699 6.08114C26.8926 6.08114 27.0814 7.29679 27.2777 8.77672C27.7081 12.0084 27.7156 12.0386 27.9648 12.25C28.1384 12.401 28.2442 12.4237 28.8633 12.4237C29.6788 12.4237 29.9053 12.3104 30.0412 11.8347C30.0865 11.6837 30.2904 10.3019 30.4942 8.76917C30.7057 7.23639 30.8869 5.96788 30.8944 5.95278C30.9095 5.94523 31.0983 7.25149 31.3097 8.85978C31.8458 12.8012 31.8383 13.6771 31.2418 14.855C30.9775 15.3684 30.4036 16.0178 29.8902 16.3727C29.7014 16.5086 29.2257 16.7351 28.8331 16.8785C27.7005 17.3089 27.7836 16.0329 28.1384 27.1852C28.4631 37.5824 28.4707 37.0614 28.0101 37.2954C27.6854 37.4691 26.0545 37.4691 25.7298 37.2954C25.2692 37.0614 25.2768 37.5824 25.6014 27.1852C25.9563 16.0329 26.0394 17.3089 24.9068 16.8785C23.8497 16.4859 23.2003 15.98 22.6718 15.1721C22.2414 14.5001 22.0904 13.9413 22.0526 12.8239C22.0224 11.9253 22.0602 11.5327 22.4226 8.88243C22.6416 7.25904 22.8304 5.94523 22.8455 5.95278C22.853 5.96788 23.0342 7.23639 23.2456 8.76917Z" fill="black" stroke="black" stroke-width="0.2"/>
</svg>
