<svg width="40" height="40" viewBox="0 0 40 40" fill="none" xmlns="http://www.w3.org/2000/svg">
<path d="M19.4639 2.14779C19.0328 2.37051 18.1348 3.3189 17.7324 3.97989C17.5312 4.30321 17.2726 4.84206 17.1576 5.17974C17.0427 5.51743 16.9205 5.79763 16.8846 5.79763C16.8487 5.79763 16.6547 5.70423 16.4535 5.58928C15.1531 4.84925 12.8971 4.21699 11.5535 4.21699C10.792 4.21699 10.3034 4.67682 10.3034 5.39529C10.3034 6.25745 10.6411 7.30642 11.2159 8.23325C11.6182 8.88706 12.7893 10.0869 13.5078 10.5827C13.7808 10.7766 14.0179 10.9634 14.0251 10.9994C14.0395 11.0353 13.6946 11.1431 13.2707 11.2293C10.9788 11.7107 9.39813 12.4651 8.16236 13.6577C6.45239 15.303 5.76266 17.6452 6.0716 20.785C6.53861 25.6059 9.25443 30.9801 13.2276 34.9389C15.0884 36.7925 16.8271 37.978 18.494 38.5312C19.0328 38.7037 19.2125 38.7324 20.0028 38.7324C20.7931 38.7324 20.9727 38.7037 21.5116 38.5312C25.3123 37.2739 29.9177 32.3021 32.2815 26.8848C33.8334 23.3356 34.3866 19.5276 33.7256 16.9268C33.2155 14.9438 31.9294 13.3488 30.0614 12.3788C28.955 11.8041 28.1287 11.5239 26.699 11.2221C26.2966 11.1359 25.9661 11.0353 25.9805 10.9994C25.9877 10.9634 26.2248 10.7766 26.4978 10.5827C27.6473 9.78515 28.8616 8.34821 29.2998 7.26332C29.5082 6.7532 29.7022 5.85511 29.7022 5.40247C29.7022 4.67682 29.2208 4.21699 28.452 4.21699C27.13 4.21699 24.8381 4.85643 23.5449 5.58928C23.3365 5.70423 23.1425 5.79763 23.1138 5.79763C23.0778 5.79763 22.9629 5.51743 22.8479 5.17974C22.5677 4.36068 22.0361 3.51289 21.3751 2.84471C20.5416 2.00409 20.0674 1.83166 19.4639 2.14779ZM20.2686 4.84925C20.9799 5.89822 21.2314 7.1771 20.9727 8.42006C20.8578 8.96609 20.477 9.79952 20.1824 10.1444L20.0028 10.3599L19.8232 10.1444C19.5286 9.79952 19.1478 8.96609 19.0328 8.42006C18.7742 7.1771 19.0257 5.89822 19.737 4.84925C19.8663 4.65526 19.9812 4.50438 20.0028 4.50438C20.0243 4.50438 20.1393 4.65526 20.2686 4.84925ZM13.8598 6.82505C14.6358 7.07651 15.7854 7.63692 16.3673 8.04645L16.7912 8.34821L16.9493 8.99483C17.0427 9.34689 17.1648 9.7636 17.2223 9.9073L17.3373 10.1731L16.9852 10.0366C15.2178 9.3397 13.5796 8.06082 12.933 6.87534L12.739 6.5161L12.9761 6.56639C13.1054 6.58795 13.5078 6.70291 13.8598 6.82505ZM27.0726 6.86815C26.6774 7.59381 25.8655 8.41287 24.8884 9.06668C24.3927 9.39718 23.3724 9.92167 22.9413 10.0725L22.6827 10.1659L22.8479 9.72049C22.9342 9.47621 23.0491 9.07387 23.0994 8.8224C23.1784 8.40569 23.2144 8.34821 23.5161 8.12548C23.94 7.81654 25.262 7.1268 25.8009 6.94C26.2104 6.78912 27.0941 6.53047 27.2091 6.52329C27.245 6.5161 27.1803 6.67417 27.0726 6.86815ZM24.134 13.0111C26.3182 13.2554 27.5827 13.5643 28.8041 14.1678C30.8158 15.145 31.7211 16.5675 31.836 18.9098C31.9941 22.2794 30.5212 26.5543 27.9132 30.2616C26.8714 31.7561 25.2405 33.5594 24.0262 34.5725C22.5462 35.8082 20.9512 36.6201 20.0028 36.6201C18.8029 36.6201 16.8487 35.4562 14.9591 33.6169C11.2087 29.9671 8.67247 25.0527 8.21265 20.5622C7.954 17.9686 8.52159 16.1149 9.93698 14.951C11.3452 13.787 13.6227 13.1404 17.1002 12.9105C18.5155 12.8171 22.9485 12.8818 24.134 13.0111Z" fill="black" stroke="black" stroke-width="0.5"/>
<path d="M10.8638 17.3007C10.3752 17.5522 10.3033 17.8109 10.3033 19.3053C10.3033 20.462 10.3177 20.6344 10.447 20.8859C10.6123 21.2092 11.0218 21.4607 11.3811 21.4607C11.7403 21.4607 12.1498 21.2092 12.3151 20.8859C12.4444 20.6344 12.4588 20.462 12.4588 19.3053C12.4588 18.1485 12.4444 17.9761 12.3151 17.7246C12.0492 17.2002 11.4026 17.0133 10.8638 17.3007Z" fill="black" stroke="black" stroke-width="0.5"/>
<path d="M19.4855 17.3007C18.9969 17.5522 18.925 17.8109 18.925 19.3053C18.925 20.462 18.9394 20.6344 19.0687 20.8859C19.234 21.2092 19.6435 21.4607 20.0028 21.4607C20.362 21.4607 20.7715 21.2092 20.9368 20.8859C21.0661 20.6344 21.0805 20.462 21.0805 19.3053C21.0805 18.1485 21.0661 17.9761 20.9368 17.7246C20.6709 17.2002 20.0243 17.0133 19.4855 17.3007Z" fill="black" stroke="black" stroke-width="0.5"/>
<path d="M28.1072 17.3007C27.6186 17.5522 27.5468 17.8109 27.5468 19.3053C27.5468 20.462 27.5611 20.6344 27.6904 20.8859C27.8557 21.2092 28.2652 21.4607 28.6245 21.4607C28.9837 21.4607 29.3932 21.2092 29.5585 20.8859C29.6878 20.6344 29.7022 20.462 29.7022 19.3053C29.7022 18.1485 29.6878 17.9761 29.5585 17.7246C29.2926 17.2002 28.646 17.0133 28.1072 17.3007Z" fill="black" stroke="black" stroke-width="0.5"/>
<path d="M15.1747 23.767C14.6861 24.0185 14.6143 24.2772 14.6143 25.7716C14.6143 26.9283 14.6286 27.1008 14.758 27.3522C14.9232 27.6755 15.3327 27.927 15.692 27.927C16.0512 27.927 16.4607 27.6755 16.626 27.3522C16.7553 27.1008 16.7697 26.9283 16.7697 25.7716C16.7697 24.6148 16.7553 24.4424 16.626 24.1909C16.3601 23.6665 15.7135 23.4797 15.1747 23.767Z" fill="black" stroke="black" stroke-width="0.5"/>
<path d="M23.7964 23.767C23.3078 24.0185 23.236 24.2772 23.236 25.7716C23.236 26.9283 23.2503 27.1008 23.3797 27.3522C23.5449 27.6755 23.9544 27.927 24.3137 27.927C24.6729 27.927 25.0824 27.6755 25.2477 27.3522C25.377 27.1008 25.3914 26.9283 25.3914 25.7716C25.3914 24.6148 25.377 24.4424 25.2477 24.1909C24.9819 23.6665 24.3352 23.4797 23.7964 23.767Z" fill="black" stroke="black" stroke-width="0.5"/>
<path d="M19.4855 30.2333C18.9897 30.4919 18.925 30.7362 18.925 32.2737C18.925 33.4664 18.9394 33.6388 19.0687 33.8903C19.234 34.2136 19.6435 34.4651 20.0028 34.4651C20.362 34.4651 20.7715 34.2136 20.9368 33.8903C21.0661 33.6388 21.0805 33.4664 21.0805 32.2737C21.0805 31.0811 21.0661 30.9086 20.9368 30.6572C20.6709 30.1327 20.0243 29.9459 19.4855 30.2333Z" fill="black" stroke="black" stroke-width="0.5"/>
</svg>
