<svg width="40" height="40" viewBox="0 0 40 40" fill="none" xmlns="http://www.w3.org/2000/svg">
<path d="M4.39319 2.08099C3.47111 2.31174 2.6898 2.95354 2.26747 3.84052C2 4.38857 2 4.39578 2 5.28997C2 6.17695 2.00704 6.21301 2.23932 6.70337C2.71796 7.70572 3.65412 8.398 4.72401 8.54222C5.00557 8.57828 5.75872 8.61434 6.39925 8.61434H7.56769L7.64512 9.1696C8.1871 12.8906 11.0026 16.2149 14.5643 17.3399C15.9087 17.7654 16.1761 17.7942 20.1601 17.8447C24.0596 17.8952 24.0244 17.8952 24.7776 18.2774C25.8967 18.8615 26.6569 19.7556 27.0652 20.9816C27.3397 21.8036 27.3397 22.8276 27.0652 23.6497C26.5795 25.0992 25.6504 26.0582 24.2074 26.5847C23.9118 26.7 23.5246 26.7433 22.5533 26.7938C21.8565 26.8226 21.223 26.8731 21.1385 26.8947C21.0188 26.9308 20.9696 26.8875 20.864 26.6424C20.3783 25.5318 19.1676 24.4501 17.9077 23.9958L17.3446 23.7939L14.3883 23.7723C11.5165 23.7579 11.425 23.7579 11.1997 23.9021C10.7774 24.1689 10.6929 24.4862 10.6929 25.8852C10.6929 26.5558 10.7281 27.3202 10.7703 27.5726C10.9393 28.6471 11.3898 29.5701 12.1429 30.385L12.5934 30.8753L12.1499 31.3441C11.0237 32.5483 10.6648 33.7021 10.707 36.0169C10.7281 37.4231 10.7492 37.4952 11.2138 37.8486C11.4038 37.9928 11.4883 38 14.2686 38C17.4642 38 17.5557 37.9928 18.5412 37.4808C19.5618 36.9616 20.2798 36.2477 20.7795 35.267L20.9625 34.9136L23.0953 34.928C24.7424 34.9424 25.411 34.9136 26.0305 34.8271C28.5433 34.4593 30.8872 33.4209 32.8651 31.7839C33.4916 31.2647 34.6741 30.0316 35.1246 29.4187C36.6239 27.4139 37.56 25.128 37.8908 22.6834C38.0316 21.6522 38.0387 19.6475 37.8979 18.6379C37.1095 12.9266 32.9285 8.16724 27.4945 6.78269C26.0305 6.40771 26.6921 6.42934 15.4089 6.38607C5.0478 6.34281 4.87887 6.34281 4.65363 6.19858C3.94975 5.76591 3.98494 4.71307 4.70994 4.3453C4.94222 4.22271 5.42086 4.2155 11.6713 4.2155H18.3793L18.6538 4.05685C19.0128 3.84773 19.2451 3.38622 19.1887 2.97517C19.1465 2.65067 18.9917 2.39107 18.689 2.16752C18.4989 2.01608 18.4426 2.01608 11.622 2.00166C6.37813 1.99445 4.66067 2.00887 4.39319 2.08099ZM23.0108 12.1118V15.6092H20.2305C17.232 15.6092 16.4295 15.5515 15.4863 15.2775C14.7684 15.0684 13.7548 14.5852 13.1495 14.1598C12.5652 13.7559 11.6854 12.8906 11.2631 12.2993C10.8618 11.7512 10.4114 10.9147 10.2072 10.345C10.0524 9.91957 9.77787 8.87394 9.77787 8.70808C9.77787 8.62876 10.9111 8.61434 16.3943 8.61434H23.0108V12.1118ZM26.8822 8.94605C29.6484 9.64554 32.119 11.3979 33.7802 13.8569C33.9773 14.1381 34.1321 14.3977 34.1321 14.4338C34.1321 14.4626 32.654 15.1765 30.845 16.013L27.5508 17.5274L27.1989 17.2245C26.7273 16.8207 26.0727 16.3952 25.587 16.1789L25.1928 16.0058V12.3209V8.63597L25.6715 8.70087C25.9319 8.73693 26.4739 8.8451 26.8822 8.94605ZM35.3921 17.3543C35.751 18.71 35.8425 19.4888 35.8074 21.0104C35.7792 22.1353 35.744 22.4887 35.5821 23.2098C35.2583 24.6521 34.6811 26.0871 34.0125 27.1111L33.7661 27.4933L33.02 27.1543C30.6338 26.0582 28.8882 25.2506 28.8601 25.229C28.846 25.2145 28.9023 25.0415 28.9868 24.8468C29.5921 23.3973 29.5921 21.2339 28.9868 19.7845C28.9023 19.5898 28.846 19.4167 28.8601 19.4023C28.9234 19.3374 35.019 16.5539 35.0894 16.5467C35.1387 16.5467 35.2724 16.9144 35.3921 17.3543ZM17.1897 26.1304C17.9429 26.3972 18.5904 26.9885 18.9072 27.7024C19.0761 28.0846 19.0761 28.0918 18.9494 28.2793C18.5975 28.7913 18.4286 29.087 18.3159 29.4042L18.1963 29.7504L16.6407 29.7287L15.0922 29.7071L14.6135 29.4764C13.4873 28.9283 12.8749 27.861 12.8749 26.4549V25.9933H14.8317C16.5914 25.9933 16.8378 26.0078 17.1897 26.1304ZM31.5137 28.9283C31.9079 29.1086 32.2246 29.2961 32.2105 29.3393C32.1683 29.4691 31.2603 30.2335 30.6127 30.6806C29.1275 31.7118 27.4101 32.3608 25.4603 32.6493L25.1928 32.6926V30.6518V28.6182L25.58 28.4524C26.0234 28.2649 26.854 27.724 27.2622 27.349L27.5438 27.0967L29.1627 27.8466C30.0567 28.2577 31.1125 28.748 31.5137 28.9283ZM23.0108 30.9114V32.7935L22.314 32.7502C21.4764 32.6998 21.0892 32.5411 20.7021 32.0796C20.3924 31.7263 20.2657 31.3585 20.2657 30.8321C20.2657 30.3633 20.4135 30.0028 20.7443 29.6494C21.2018 29.1591 21.5327 29.0437 22.4336 29.0293L23.0108 29.022V30.9114ZM18.2244 32.0724C18.2244 32.231 18.689 33.1613 18.8861 33.4065L19.0832 33.6372L18.9635 33.9401C18.689 34.654 18.0414 35.2958 17.2883 35.6059C16.9504 35.7501 16.7674 35.7645 14.9021 35.7862L12.8749 35.8078V35.2814C12.8749 34.654 13.0157 34.0338 13.2762 33.5507C13.6492 32.8512 14.5009 32.2094 15.2822 32.058C15.4511 32.0219 16.1761 31.9931 16.9082 31.9859C17.9358 31.9786 18.2244 32.0003 18.2244 32.0724Z" fill="black"/>
<path d="M14.4728 10.0855C14.1138 10.2225 14.0012 10.3306 13.8463 10.6912C13.5225 11.4339 14.0223 12.22 14.8106 12.22C15.2259 12.22 15.5568 12.0397 15.7679 11.7008C15.9861 11.3402 15.9298 10.7128 15.6483 10.41C15.5356 10.2874 15.3949 10.1648 15.3385 10.1287C15.1203 10.0133 14.7332 9.99171 14.4728 10.0855Z" fill="black"/>
</svg>
