<svg width="40" height="40" viewBox="0 0 40 40" fill="none" xmlns="http://www.w3.org/2000/svg">
<path d="M13.4752 4.03503C9.29835 4.57646 5.80479 7.43835 4.48987 11.396C4.07735 12.6336 4.00645 13.1492 4 14.8187C4 16.4816 4.0709 16.9651 4.48987 18.2606C5.61787 21.7026 8.58933 24.4678 12.1216 25.3445C12.9724 25.5572 13.4945 25.6345 14.4936 25.6861L15.3251 25.7312L15.2928 25.931C15.2413 26.2791 15.3702 27.7487 15.512 28.3997C15.7247 29.373 15.9825 30.1143 16.4402 31.0295C17.9291 34.0139 20.617 36.083 23.9494 36.8113C24.5488 36.9402 24.8067 36.9531 26.1409 36.9531C27.8039 36.9531 28.3453 36.8822 29.5894 36.4697C30.4015 36.2054 31.7293 35.5286 32.4577 35.013C33.2441 34.4522 34.4301 33.2662 34.9908 32.4798C35.8159 31.3196 36.4669 29.8178 36.7892 28.3352C36.9181 27.7616 36.931 27.4909 36.931 26.1631C36.931 24.8288 36.9181 24.571 36.7892 23.9715C36.2993 21.7284 35.2358 19.8205 33.6179 18.28C31.6649 16.4172 29.1768 15.3859 26.5083 15.3214L25.6897 15.3021V14.8831C25.6768 13.1621 25.303 11.5894 24.5231 10.0166C23.9687 8.88862 23.4015 8.08936 22.5313 7.21275C20.8103 5.47241 18.6897 4.39598 16.3113 4.05436C15.8858 3.99635 13.8941 3.97702 13.4752 4.03503ZM13.8103 23.6235C13.7588 23.675 12.6114 23.4172 12.0442 23.2303C8.90516 22.1796 6.62339 19.5304 6.06262 16.2754C5.9337 15.5212 5.94015 14.1096 6.06906 13.3297C6.5396 10.5967 8.34439 8.16671 10.8389 6.91625C11.593 6.53595 12.5405 6.22011 13.2818 6.09764L13.7974 6.01385L13.8168 14.8058C13.8232 19.6465 13.8232 23.6106 13.8103 23.6235ZM16.6078 6.14921C20.0691 6.87757 22.8021 9.64922 23.4917 13.1363C23.6464 13.8969 23.7173 14.8315 23.6593 15.257L23.6207 15.5664L23.1243 15.7146C21.2615 16.256 19.6437 17.2358 18.3094 18.6345C17.9549 19.0019 17.4973 19.5433 17.291 19.8334C16.872 20.4135 16.2855 21.5028 16.0083 22.199L15.8343 22.6502L15.8278 14.3481V6.05252H15.9825C16.0728 6.05252 16.3499 6.09764 16.6078 6.14921ZM27.675 17.4356C28.861 17.6354 30.3113 18.2349 31.1943 18.8859L31.6391 19.2146L25.4319 25.4218C22.0157 28.838 19.1925 31.6225 19.1667 31.6032C19.0571 31.5323 18.477 30.617 18.2192 30.1014C17.8647 29.4052 17.5359 28.419 17.4006 27.6456C17.2652 26.8656 17.2652 25.4282 17.4006 24.6612C18.0258 21.1741 20.6363 18.3767 24.0332 17.5581C25.245 17.268 26.4439 17.2229 27.675 17.4356ZM33.5148 21.2579C34.1658 22.2376 34.6814 23.5397 34.8684 24.6741C34.9973 25.454 35.0037 26.8721 34.8748 27.6198C34.314 30.8748 32.0065 33.5498 28.8868 34.5747C27.1271 35.1483 25.1289 35.1483 23.3886 34.5747C22.4604 34.2653 21.3067 33.6594 20.7717 33.2017C20.6621 33.1051 21.0553 32.699 26.8628 26.8914C31.6713 22.0829 33.0829 20.7036 33.1474 20.7616C33.1925 20.8002 33.3601 21.0194 33.5148 21.2579Z" fill="black"/>
</svg>
