<svg width="40" height="40" viewBox="0 0 40 40" fill="none" xmlns="http://www.w3.org/2000/svg">
<path d="M6.98516 5.81898C5.75469 6.19112 4.83359 7.00984 4.46094 8.08905C4.20781 8.79613 4.28516 9.7823 4.63672 10.5266C4.67891 10.6258 4.62969 10.6382 4.13047 10.6382C3.64531 10.6382 3.51172 10.663 3.13906 10.8305C2.65391 11.0414 2.40781 11.2709 2.16875 11.7236C2.00703 12.0214 2 12.0896 2 13.5658V15.0915L2.23203 15.4823C2.49219 15.9289 2.87187 16.2204 3.40625 16.3878L3.75781 16.4995V22.981V29.4625L3.40625 29.5741C2.87187 29.7416 2.49219 30.0331 2.23203 30.4797L2 30.8704V32.4024V33.9406L2.21797 34.3189C2.45703 34.7469 2.71719 34.964 3.23047 35.1749L3.58203 35.3237H20.007H36.432L36.8609 35.1315C37.3461 34.9206 37.5922 34.6911 37.8312 34.2383C37.993 33.9406 38 33.8724 38 32.3962V30.8704L37.768 30.4797C37.5078 30.0331 37.1281 29.7416 36.5938 29.5741L36.2422 29.4625V22.981V16.4995L36.5938 16.3878C37.1281 16.2204 37.5078 15.9289 37.768 15.4823L38 15.0915V13.5596V12.0214L37.782 11.643C37.557 11.2399 37.318 11.029 36.8469 10.8057L36.5586 10.6692L22.1797 10.6382L7.80078 10.6072L7.44922 10.4398C6.80937 10.142 6.5 9.70167 6.5 9.08764C6.5 8.4674 6.82344 8.02083 7.48438 7.71691C7.78672 7.58046 7.87812 7.57425 9.55859 7.55565C11.5062 7.53084 11.6539 7.50603 11.9141 7.13388C12.1039 6.86718 12.1039 6.33378 11.9211 6.08568C11.6187 5.68253 11.5906 5.67632 9.41797 5.67632C7.56875 5.68253 7.42109 5.68873 6.98516 5.81898ZM35.8906 13.5534V14.6078H20H4.10938V13.5534V12.4989H20H35.8906V13.5534ZM34.1328 22.981V29.4935H20H5.86719V22.981V16.4685H20H34.1328V22.981ZM35.8906 32.4086V33.463H20H4.10938V32.4086V31.3542H20H35.8906V32.4086Z" fill="black"/>
<path d="M16.1328 18.6763C13.8266 19.0423 11.7172 20.2828 10.3672 22.0566C9.97344 22.5838 9.94531 22.6397 9.94531 22.9808C9.94531 23.3219 9.97344 23.3777 10.3672 23.9049C11.7453 25.7222 13.8547 26.9379 16.2453 27.2977C17.2789 27.4527 19.0227 27.3907 19.9648 27.1736C21.4484 26.8201 22.7422 26.1812 23.8602 25.2385L24.493 24.7113L25.2312 25.685C25.632 26.2184 26.0539 26.7084 26.1664 26.7705C26.3422 26.8759 26.518 26.8883 27.875 26.8883C29.5414 26.8883 29.6258 26.8697 29.9211 26.4789C30.0477 26.3053 30.0547 26.1254 30.0547 22.9808C30.0547 19.8362 30.0477 19.6563 29.9211 19.4826C29.6258 19.0919 29.5414 19.0733 27.875 19.0733C26.518 19.0733 26.3422 19.0857 26.1664 19.1911C26.0539 19.2532 25.632 19.7431 25.2312 20.2828L24.493 21.2565L23.8812 20.7355C22.5945 19.6439 21.0266 18.9306 19.3391 18.6701C18.5727 18.5523 16.8781 18.5585 16.1328 18.6763ZM18.8609 20.5681C19.7539 20.6797 20.6539 21.0022 21.5117 21.5108C21.9547 21.7775 22.8406 22.5218 23.0516 22.8071C23.1711 22.9746 23.1711 22.987 23.0586 23.1421C22.8406 23.4398 21.9406 24.1965 21.4836 24.4694C19.2195 25.8091 16.2734 25.8091 14.0164 24.4632C13.5453 24.1903 12.6594 23.446 12.4484 23.1483C12.3219 22.987 12.3219 22.9746 12.4484 22.8071C12.6594 22.5156 13.5453 21.7713 14.0164 21.4984C14.9375 20.9464 16.0625 20.5929 17.1383 20.506C17.7711 20.4626 18.0875 20.4688 18.8609 20.5681ZM27.9453 22.9808V25.0276H27.65H27.3477L26.5812 24.0042L25.8148 22.9808L26.5812 21.9574L27.3477 20.934H27.65H27.9453V22.9808Z" fill="black"/>
<path d="M15.4719 22.1684C15.1484 22.3606 15.0078 22.5963 15.0078 22.9809C15.0078 23.3654 15.1484 23.6011 15.4719 23.7934C15.7391 23.9485 16.3508 23.9547 16.6391 23.7996C17.3 23.4585 17.3 22.5033 16.6391 22.156C16.3508 22.0071 15.7391 22.0133 15.4719 22.1684Z" fill="black"/>
</svg>
