<svg width="40" height="40" viewBox="0 0 40 40" fill="none" xmlns="http://www.w3.org/2000/svg">
<path d="M29.7039 3.0684C28.1648 3.23256 26.7147 3.64298 25.3945 4.28596C24.348 4.79898 23.5203 5.38724 22.6858 6.20806C21.906 6.98101 21.393 7.64451 20.8184 8.65687L20.3875 9.40929L20.066 8.74579C19.3956 7.39826 18.0892 5.66769 17.4804 5.33252C17.1315 5.14783 16.9332 5.14099 16.5638 5.32568C16.3517 5.42828 16.2355 5.54456 16.1329 5.75661C15.8661 6.30383 15.9345 6.54324 16.6048 7.27514C17.8429 8.65003 18.7116 10.3396 19.0673 12.077C19.1357 12.4395 19.1904 12.7405 19.1768 12.7542C19.1699 12.761 18.8553 12.6447 18.4791 12.4942C15.2915 11.1946 11.6799 11.7008 8.84117 13.8623C6.93958 15.3124 5.64678 17.3645 5.18849 19.6491C4.99696 20.6273 4.95592 21.4823 5.04484 22.6862C5.25005 25.5591 6.08456 28.1926 7.60309 30.7508C9.833 34.5061 13.4104 37.4542 16.3312 37.9467C16.9195 38.0425 17.8224 38.0083 18.5543 37.851C19.0468 37.7484 19.9018 37.4679 20.1481 37.338C20.2575 37.2832 20.367 37.3037 20.6884 37.4406C21.434 37.7757 22.3027 37.9536 23.1851 37.9536C24.4437 37.9536 25.374 37.7278 26.6258 37.1259C27.9186 36.4966 28.9583 35.71 30.2511 34.383C34.2116 30.3062 36.3252 24.1089 35.3539 19.4439C34.964 17.5765 34.1227 15.9896 32.8572 14.731C32.0432 13.9307 31.2976 13.3971 30.1827 12.8431L29.2866 12.3916L29.656 11.9812C31.0377 10.4627 32.0159 7.95232 32.269 5.28463C32.3716 4.20388 32.3579 3.89606 32.2006 3.57458C31.9817 3.12996 31.6739 2.99316 30.8941 3C30.5384 3.00684 30.0048 3.0342 29.7039 3.0684ZM30.1827 5.50352C29.998 7.09045 29.4097 8.80051 28.6847 9.88811C28.2743 10.5037 27.5355 11.2014 27.0225 11.4682C26.571 11.6939 25.9623 11.8102 25.2509 11.8171C24.389 11.8171 22.8636 12.1796 21.8786 12.6105L21.5161 12.7747L21.5572 12.5148C21.5845 12.378 21.6803 11.9949 21.7692 11.6734C22.7405 8.24645 25.333 5.93446 28.9856 5.25043C29.3413 5.18203 29.7723 5.12047 29.9364 5.12047L30.2306 5.11363L30.1827 5.50352ZM16.3312 13.9786C17.3915 14.1769 18.3833 14.6079 19.3067 15.2714C20.1823 15.9075 20.4627 15.9144 21.222 15.3398C21.8102 14.8952 23.0278 14.3137 23.8213 14.0948C24.4574 13.917 24.5942 13.9033 25.8049 13.9033C27.0157 13.9033 27.1525 13.917 27.7818 14.0948C29.0882 14.4574 30.1622 15.0662 31.1266 15.9828C32.4536 17.2482 33.2676 18.8283 33.507 20.6204C33.7191 22.1937 33.3908 24.6288 32.7136 26.5714C31.3592 30.4704 28.3358 34.1025 25.2714 35.5184C23.9239 36.1409 22.6516 36.0862 21.0852 35.3474C20.7637 35.197 20.4217 35.0738 20.3259 35.0738C20.2233 35.0738 19.8471 35.2106 19.4846 35.3748C17.9387 36.0793 16.7553 36.1341 15.483 35.5732C12.8017 34.383 9.94245 31.2843 8.45128 27.9532C7.17899 25.0939 6.73438 21.879 7.30896 19.5807C7.50048 18.8078 8.15715 17.515 8.70436 16.8309C9.89456 15.3466 11.7414 14.259 13.6293 13.9444C14.2244 13.8418 15.7293 13.8623 16.3312 13.9786Z" fill="black" stroke="black" stroke-width="0.2"/>
<path d="M13.732 16.2906C12.8701 16.4821 12.2203 16.7831 11.502 17.3303C10.2366 18.2879 9.42945 19.8748 9.42261 21.4002C9.42261 21.8311 9.44997 21.9611 9.57993 22.1526C9.99035 22.7683 10.818 22.7614 11.2831 22.139C11.3652 22.0295 11.4336 21.7696 11.4747 21.3934C11.5499 20.7093 11.5978 20.5247 11.844 20.039C12.0835 19.5602 12.5076 19.1087 13 18.7872C13.5062 18.4589 13.9235 18.3221 14.628 18.2537C15.2094 18.1921 15.4146 18.0964 15.6677 17.7612C15.9892 17.3234 15.7977 16.5573 15.3052 16.3179C15.0248 16.1743 14.3134 16.1606 13.732 16.2906Z" fill="black" stroke="black" stroke-width="0.2"/>
</svg>
