<svg width="40" height="40" viewBox="0 0 40 40" fill="none" xmlns="http://www.w3.org/2000/svg">
<path d="M33.2768 33.5329C33.7483 34.7009 33.8571 35.0419 33.8571 35.3538C33.8571 35.8108 33.683 36.1445 33.3348 36.3549C33.0954 36.5 32.9358 36.5 19.9286 36.5C6.92132 36.5 6.76172 36.5 6.52232 36.3549L6.55687 36.2979C6.55695 36.2979 6.55703 36.298 6.5571 36.298M33.2768 33.5329L6.64221 33.5868C6.41368 34.1563 6.26943 34.5352 6.18228 34.8074C6.09518 35.0794 6.06667 35.2405 6.06667 35.3756C6.06667 35.7824 6.23761 36.1008 6.5571 36.298M33.2768 33.5329L32.6964 32.0893M33.2768 33.5329L32.6964 32.0893M6.5571 36.298C6.58366 36.3141 6.60629 36.3267 6.6506 36.3383C6.69756 36.3507 6.76962 36.3622 6.89428 36.3723C7.14343 36.3925 7.58998 36.4061 8.43821 36.4152C10.1335 36.4333 13.4247 36.4333 19.9286 36.4333C26.4325 36.4333 29.7237 36.4333 31.4189 36.4152C32.2672 36.4061 32.7137 36.3925 32.9629 36.3723C33.0875 36.3622 33.1596 36.3507 33.2065 36.3383C33.251 36.3266 33.2736 36.314 33.3003 36.2979L33.3003 36.2978C33.6258 36.1012 33.7905 35.7909 33.7905 35.3538C33.7905 35.0578 33.6884 34.7306 33.215 33.5579L33.2149 33.5578L32.6346 32.1142L32.6298 32.1022V32.0893V20.25V8.41072V8.39782L32.6346 8.38585L33.2149 6.94221L33.215 6.94212C33.6884 5.76936 33.7905 5.44222 33.7905 5.14621C33.7905 4.70908 33.6258 4.39878 33.3003 4.20215L33.3003 4.20211C33.2736 4.18595 33.251 4.17338 33.2065 4.16167C33.1596 4.14929 33.0875 4.13776 32.9629 4.12766C32.7137 4.10748 32.2672 4.09387 31.4189 4.0848C29.7237 4.06667 26.4325 4.06667 19.9286 4.06667C13.4247 4.06667 10.1335 4.06667 8.43821 4.0848C7.58998 4.09387 7.14343 4.10748 6.89428 4.12766C6.76962 4.13776 6.69756 4.14929 6.6506 4.16167C6.60622 4.17336 6.58358 4.18592 6.55697 4.20205C6.23756 4.39928 6.06667 4.7177 6.06667 5.12444C6.06667 5.25949 6.09518 5.42056 6.18228 5.69263C6.26943 5.96485 6.41368 6.34369 6.64223 6.91323L7.22257 8.35683L7.22738 8.3688V8.3817V20.25V32.1183V32.1312L7.22257 32.1432L6.64223 33.5868L6.5571 36.298ZM32.6964 32.0893V20.25V8.41072M32.6964 32.0893V8.41072M32.6964 8.41072L33.2768 6.96708L32.6964 8.41072ZM9.16639 33.4065L9.41548 32.7873V20.25V7.71268L9.16639 7.09352L9.16625 7.09318C9.09721 6.91876 9.03354 6.75322 8.98706 6.62746C8.96385 6.56465 8.94477 6.51135 8.93143 6.47167C8.92478 6.45191 8.91935 6.43491 8.91551 6.42153C8.9136 6.41489 8.91189 6.40846 8.9106 6.40267C8.90966 6.39846 8.90766 6.38927 8.90766 6.37947C8.90766 6.34767 8.9286 6.33028 8.93445 6.32587C8.94201 6.32018 8.94904 6.31741 8.95171 6.3164C8.95784 6.31409 8.9633 6.31302 8.96555 6.3126C8.97106 6.31156 8.97713 6.31088 8.98238 6.31038C8.99352 6.30932 9.00903 6.30836 9.02809 6.30744C9.06657 6.3056 9.12323 6.30378 9.19679 6.30199C9.34409 6.29841 9.561 6.2949 9.83986 6.29149C10.3977 6.28469 11.2042 6.27834 12.1995 6.2729C14.1901 6.26202 16.936 6.25476 19.9576 6.25476H30.9481H31.0477L31.0097 6.34685L30.7197 7.0502L30.7196 7.05053L30.4417 7.73456V20.25V32.7654L30.7196 33.4495L30.7197 33.4498L31.0097 34.1532L31.0477 34.2452H30.9481H19.9576C16.936 34.2452 14.1901 34.238 12.1995 34.2271C11.2042 34.2217 10.3977 34.2153 9.83986 34.2085C9.561 34.2051 9.34409 34.2016 9.19679 34.198C9.12323 34.1962 9.06657 34.1944 9.02809 34.1926C9.00903 34.1916 8.99352 34.1907 8.98238 34.1896C8.97713 34.1891 8.97106 34.1884 8.96555 34.1874C8.9633 34.187 8.95784 34.1859 8.95171 34.1836C8.94904 34.1826 8.94201 34.1798 8.93446 34.1741C8.9286 34.1697 8.90766 34.1523 8.90766 34.1205C8.90766 34.1107 8.90966 34.1015 8.9106 34.0973C8.91189 34.0915 8.9136 34.0851 8.91551 34.0785C8.91935 34.0651 8.92478 34.0481 8.93143 34.0283C8.94477 33.9887 8.96385 33.9353 8.98706 33.8725C9.03354 33.7468 9.09721 33.5812 9.16625 33.4068L9.16639 33.4065Z" fill="black" stroke="black" stroke-width="0.133333"/>
<path d="M12.3259 8.78802C11.9777 9.00565 11.8036 9.3321 11.8036 9.80364C11.8036 10.2752 11.9777 10.6016 12.3259 10.8193C12.5581 10.9644 12.7104 10.9644 19.9286 10.9644C27.1468 10.9644 27.2991 10.9644 27.5313 10.8193C27.8795 10.6016 28.0536 10.2752 28.0536 9.80364C28.0536 9.3321 27.8795 9.00565 27.5313 8.78802C27.2991 8.64293 27.1468 8.64293 19.9286 8.64293C12.7104 8.64293 12.5581 8.64293 12.3259 8.78802Z" fill="black"/>
<path d="M18.202 13.4092C17.745 13.6341 17.5274 14.1709 17.6434 14.7803C17.6797 14.9907 17.8248 15.1938 18.2311 15.6073L18.7679 16.1586V17.1525C18.7679 17.6966 18.7534 18.1463 18.7316 18.1463C18.6591 18.1463 17.0268 17.1815 16.9688 17.1017C16.9325 17.0582 16.8309 16.7462 16.7439 16.4053C16.5625 15.7306 16.3884 15.4404 16.0982 15.2881C15.5542 15.0197 15.0101 15.1067 14.6183 15.5202C14.2991 15.8612 14.2121 16.2239 14.3354 16.6809C14.3789 16.855 14.4007 17.0219 14.3789 17.0509C14.3644 17.0872 14.1976 17.1525 14.0162 17.2033C13.5737 17.3266 13.211 17.7328 13.1457 18.1754C13.1021 18.4438 13.1239 18.5744 13.2617 18.85C13.5955 19.5247 14.0597 19.6553 15.1552 19.3723L15.7355 19.2273L16.5988 19.7206C17.0703 19.989 17.4621 20.2284 17.4621 20.2501C17.4621 20.2719 17.0703 20.5113 16.5988 20.7797L15.7355 21.273L15.1334 21.1207C14.0888 20.8523 13.5592 20.9901 13.2545 21.5995C13.0804 21.9549 13.0731 22.2524 13.2255 22.6441C13.3633 22.9778 13.6245 23.1955 14.067 23.326C14.3354 23.3986 14.3789 23.4421 14.3572 23.5944C14.3427 23.6888 14.3282 23.9572 14.3209 24.1821C14.3064 24.6463 14.4297 24.8785 14.8577 25.1687C15.0609 25.3138 15.1769 25.3355 15.5396 25.3138C16.2433 25.2702 16.5263 24.9655 16.7729 23.9862C16.8455 23.7033 16.9325 23.4421 16.9688 23.3986C17.0268 23.3188 18.6591 22.3539 18.7316 22.3539C18.7534 22.3539 18.7679 22.8037 18.7679 23.355V24.3562L18.2891 24.8205C17.7595 25.3428 17.6072 25.6112 17.6072 26.061C17.6072 27.1201 18.8332 27.6062 19.6457 26.8735L19.9359 26.6123L20.168 26.8299C20.5017 27.1491 20.6686 27.2144 21.1038 27.2144C21.8075 27.2144 22.25 26.7719 22.25 26.0682C22.25 25.5749 22.1485 25.4008 21.5681 24.8205L21.0893 24.3562V23.355C21.0893 22.8037 21.1038 22.3539 21.1256 22.3539C21.1981 22.3539 22.8304 23.3188 22.8884 23.3986C22.9247 23.4421 23.0117 23.7033 23.0843 23.9862C23.3309 24.9655 23.6139 25.2702 24.3176 25.3138C24.8689 25.35 25.1808 25.1614 25.4347 24.6463C25.6016 24.3199 25.6088 24.2619 25.529 23.8919C25.4855 23.6742 25.4638 23.4711 25.4783 23.4421C25.5 23.4131 25.6524 23.3478 25.8265 23.3043C26.2617 23.1955 26.6462 22.7747 26.7115 22.3249C26.7551 22.0565 26.7333 21.9259 26.5955 21.6503C26.2617 20.9756 25.7975 20.845 24.702 21.1279L24.1217 21.273L23.2584 20.7797C22.7869 20.5113 22.3951 20.2719 22.3951 20.2501C22.3951 20.2284 22.7869 19.989 23.2657 19.7133L24.1362 19.22L24.702 19.3723C25.7757 19.6625 26.2545 19.5247 26.5955 18.85C26.7333 18.5744 26.7551 18.4438 26.7115 18.1754C26.6462 17.7328 26.2835 17.3266 25.841 17.2033C25.6596 17.1525 25.4928 17.0872 25.4783 17.0582C25.4565 17.0219 25.4783 16.8333 25.529 16.6302C25.7684 15.5783 24.7456 14.7948 23.759 15.2881C23.4688 15.4404 23.2947 15.7306 23.1133 16.4053C23.0263 16.7462 22.9247 17.0582 22.8884 17.1017C22.8304 17.1815 21.1981 18.1463 21.1256 18.1463C21.1038 18.1463 21.0893 17.6966 21.0893 17.1452V16.1441L21.5681 15.6798C21.8293 15.4187 22.0904 15.1212 22.1485 15.0124C22.2863 14.7513 22.279 14.1999 22.134 13.8952C21.8075 13.2133 20.8209 13.0755 20.2115 13.6268L19.9213 13.888L19.6892 13.6631C19.5586 13.5398 19.3628 13.4019 19.2539 13.3657C18.9565 13.2496 18.4777 13.2713 18.202 13.4092Z" fill="black"/>
<path d="M23.9331 29.6808C23.5849 29.8985 23.4108 30.2249 23.4108 30.6965C23.4108 31.168 23.5849 31.4945 23.9331 31.7121C24.1507 31.8427 24.3031 31.8572 25.7322 31.8572C27.1613 31.8572 27.3137 31.8427 27.5313 31.7121C27.8795 31.4945 28.0536 31.168 28.0536 30.6965C28.0536 30.2249 27.8795 29.8985 27.5313 29.6808C27.3137 29.5503 27.1613 29.5357 25.7322 29.5357C24.3031 29.5357 24.1507 29.5503 23.9331 29.6808Z" fill="black"/>
</svg>
