<svg width="40" height="40" viewBox="0 0 40 40" fill="none" xmlns="http://www.w3.org/2000/svg">
<path d="M12.1895 5.03518C10.6403 5.59917 9.31238 6.12033 9.22671 6.19886C9.14104 6.27025 7.57757 7.66239 5.74994 9.28297C3.92232 10.9036 2.24462 12.4099 2.02331 12.6241C1.60923 13.031 1.48787 13.288 1.58068 13.5807C1.60923 13.6664 3.00851 15.1371 4.68621 16.8362L7.74891 19.9346V28.3017C7.74891 36.1119 7.76318 36.6688 7.87741 36.8116C7.94166 36.8972 8.07017 37.0043 8.15584 37.0471C8.37715 37.1614 31.251 37.1614 31.4723 37.0471C31.558 37.0043 31.6865 36.8972 31.7507 36.8116C31.865 36.6688 31.8792 36.1119 31.8792 28.3017V19.9346L34.9419 16.8362C36.6196 15.1371 38.0189 13.6664 38.0475 13.5807C38.1403 13.2952 38.0189 13.031 37.6405 12.6598C37.4335 12.4599 35.6773 10.8893 33.7354 9.16875L30.2015 6.02752L27.3459 5.01376C25.7753 4.45691 24.4331 4 24.3617 4C24.0119 4 23.6692 4.37838 23.6692 4.74247C23.6692 4.82814 23.605 5.14227 23.5336 5.43497C23.0338 7.3911 21.6988 8.49767 19.8284 8.49767C18.7218 8.49767 17.9079 8.20496 17.2011 7.54816C16.5586 6.95561 16.0732 5.95613 15.9232 4.92809C15.8304 4.28556 15.5877 3.99286 15.1593 4.00714C15.0665 4.00714 13.7315 4.47118 12.1895 5.03518ZM14.7167 6.10605C14.9595 7.05556 15.7376 8.2121 16.5443 8.81893C17.6081 9.62565 18.6718 9.96119 20.0282 9.91122C21.3204 9.86124 22.3699 9.44003 23.3194 8.5762C24.0405 7.92653 24.6687 6.91278 24.89 6.0418C24.9328 5.86332 25.0042 5.7134 25.0542 5.7134C25.097 5.72054 26.1179 6.07749 27.3173 6.52012L29.509 7.31971L32.8716 10.3467C34.7278 12.0101 36.227 13.3951 36.2198 13.4237C36.2056 13.4522 35.2275 14.466 34.0424 15.6797L31.8792 17.8857V16.1508C31.8792 14.3518 31.8578 14.2161 31.5651 13.9805C31.3938 13.8378 31.0154 13.8163 30.8012 13.9234C30.4371 14.1233 30.4514 13.5879 30.4514 25.0248V35.6265H19.7784H9.10535V24.9463V14.2661L8.89831 14.0591C8.49138 13.6521 7.83458 13.8592 7.72035 14.4303C7.69893 14.5588 7.67752 15.3727 7.67752 16.2436V17.8357L5.52149 15.6582C4.32925 14.466 3.35119 13.4594 3.33691 13.4308C3.32977 13.4023 4.84327 12.0173 6.70659 10.3467L10.0905 7.31971L12.2537 6.52012C13.446 6.08463 14.4668 5.72767 14.524 5.73481C14.5882 5.74195 14.6667 5.89902 14.7167 6.10605Z" fill="black" stroke="black"/>
</svg>
