<svg width="40" height="40" viewBox="0 0 40 40" fill="none" xmlns="http://www.w3.org/2000/svg">
<path d="M12.7509 2.1212C12.3806 2.29922 12.2026 2.61253 12.2026 3.06825C12.2026 3.83016 12.6156 4.13635 13.6552 4.13635H14.3032V9.91831V15.7003L10.4438 23.241C8.3147 27.3924 6.48469 31.0168 6.37076 31.2945C5.53053 33.3737 6.15002 35.7876 7.90882 37.2545C8.39302 37.6603 9.41128 38.173 10.0308 38.3225C10.3512 38.408 12.1598 38.4222 19.9997 38.4222C30.8302 38.4222 29.9614 38.465 31.1862 37.8383C33.5502 36.635 34.6255 33.7511 33.6286 31.2945C33.5146 31.0168 31.6846 27.3924 29.5627 23.2481L25.6962 15.7003V9.91831V4.13635H26.3442C27.0847 4.13635 27.3909 4.02954 27.6401 3.68063C27.8609 3.37444 27.8609 2.76206 27.6401 2.45588C27.2983 1.97167 27.7327 2.00016 19.9854 2.00016C13.6837 2.00016 12.9645 2.0144 12.7509 2.1212ZM23.5671 10.0963C23.5671 14.4542 23.5956 16.1346 23.6526 16.3198C23.7024 16.4551 24.386 17.8436 25.1835 19.3888C25.9739 20.9411 26.6219 22.2299 26.6219 22.2513C26.6219 22.2726 23.6454 22.294 19.9997 22.294C16.361 22.294 13.3775 22.2726 13.3775 22.2513C13.3775 22.2228 14.0254 20.9411 14.823 19.3888C15.6134 17.8365 16.2969 16.4551 16.3468 16.3198C16.4037 16.1346 16.4322 14.4542 16.4322 10.0963L16.4393 4.13635H19.9997H23.56L23.5671 10.0963ZM28.5302 25.9398C30.9299 30.5753 31.763 32.2985 31.8342 32.7542C32.0905 34.3065 30.9726 35.9158 29.4132 36.2433C28.8791 36.3573 11.1202 36.3573 10.5862 36.2433C9.03388 35.9158 7.92306 34.3207 8.16516 32.7684C8.23637 32.2985 8.99116 30.7391 11.5047 25.8685L12.2453 24.4302H19.9997H27.754L28.5302 25.9398Z" fill="black"/>
</svg>
