<svg width="40" height="40" viewBox="0 0 40 40" fill="none" xmlns="http://www.w3.org/2000/svg">
<path d="M18.0952 1.09206C14.4297 1.61983 11.2847 3.17423 8.73986 5.72634C6.12992 8.32905 4.51768 11.662 4.06944 15.3708C3.96099 16.2963 3.98268 18.4073 4.11281 19.434C4.79241 24.7406 8.1904 29.4689 13.0705 31.9053C14.7623 32.7512 16.3817 33.2428 18.4277 33.532C18.7965 33.5826 21.5799 33.626 26.2648 33.6549C33.3644 33.6983 33.5379 33.6983 33.7693 33.8429C34.1019 34.0381 34.2898 34.3707 34.2898 34.7466C34.2898 35.1226 34.1019 35.4551 33.7693 35.6503C33.5379 35.7877 33.3644 35.7949 29.9158 35.8311C26.6697 35.86 26.2865 35.8817 26.1274 35.9901C25.8238 36.207 25.6864 36.489 25.6864 36.9155C25.6864 37.3638 25.831 37.6385 26.1636 37.8626C26.3588 37.9928 26.5685 38 30.14 38C33.6825 38 33.9284 37.9928 34.3115 37.8626C35.6852 37.3855 36.5311 36.1998 36.5311 34.7466C36.5311 33.2934 35.6852 32.1077 34.3115 31.6306C33.9356 31.5004 33.6898 31.4932 31.0871 31.4932H28.2675L28.8892 31.1028C29.7279 30.575 30.4436 30.0328 31.2027 29.3315C34.138 26.6493 35.931 23.2151 36.4299 19.34C36.5961 18.0242 36.5455 15.6239 36.3214 14.4165C35.8587 11.8572 34.8682 9.56534 33.35 7.52655C30.8485 4.16471 27.2697 1.95963 23.0837 1.18605C22.0137 0.990841 19.1652 0.933006 18.0952 1.09206ZM21.9776 3.29714C24.2549 3.60079 26.3226 4.39606 28.2024 5.6685C28.4048 5.80587 28.5711 5.936 28.5566 5.95046C28.5422 5.95769 28.3036 5.92154 28.0289 5.8637C26.5034 5.54559 24.1031 5.48053 22.5776 5.71188C20.228 6.06614 17.9723 6.89033 16.1576 8.06878C15.7889 8.30736 15.4635 8.50257 15.4419 8.50257C15.3623 8.50257 15.4852 6.42039 15.6009 5.76971C15.731 5.04674 15.9985 3.93336 16.0636 3.86106C16.1359 3.78153 17.5023 3.44896 18.2398 3.34052C19.064 3.21761 21.1895 3.19592 21.9776 3.29714ZM13.3525 5.57451C13.2006 6.43485 13.1428 8.76284 13.2512 9.74609C13.6633 13.5417 15.2539 16.8746 17.9506 19.5641C20.387 22.0078 23.25 23.4899 26.7347 24.1261C27.4794 24.2634 27.8626 24.2851 29.4459 24.2851C30.7979 24.2851 31.4558 24.2562 31.904 24.1767C32.2438 24.1116 32.5258 24.0682 32.533 24.0755C32.5402 24.0827 32.4679 24.2201 32.374 24.3791C32.2221 24.6322 32.0703 24.7406 31.2389 25.1527C29.1061 26.2227 27.3059 26.642 24.8622 26.6565C21.0883 26.6637 17.6108 25.2322 14.9502 22.5645C12.2824 19.9039 10.851 16.4264 10.8582 12.6525C10.8726 10.2088 11.292 8.40858 12.362 6.2758C12.7741 5.44438 12.8825 5.29255 13.1356 5.14073C13.2946 5.04674 13.432 4.97444 13.4392 4.98167C13.4464 4.9889 13.4031 5.2564 13.3525 5.57451ZM26.178 7.85189C27.971 8.04709 29.5471 8.5098 31.1666 9.3123C32.0703 9.76055 32.2221 9.86176 32.374 10.122C32.4679 10.2811 32.5402 10.4185 32.533 10.4257C32.5258 10.4329 32.2438 10.3895 31.904 10.3245C30.9786 10.1582 27.9927 10.1654 26.9878 10.3317C23.5103 10.9245 20.6328 12.3488 18.1169 14.7491L17.459 15.3781L16.9456 14.3514C16.4974 13.4622 15.9624 12.0307 15.825 11.3511C15.7817 11.1487 15.8106 11.1053 16.1937 10.8016C19.0206 8.58932 22.7439 7.4904 26.178 7.85189ZM8.84108 9.70994C7.48188 16.7373 11.1185 24.0176 17.5891 27.2349C18.6808 27.7771 19.1869 27.9795 20.2063 28.276C22.9102 29.064 25.6575 29.158 28.4193 28.5579L28.6145 28.5146L28.4337 28.6664C27.7758 29.2231 26.113 30.1196 24.9779 30.5244C23.3946 31.1028 21.9776 31.3486 20.2352 31.3486C16.6058 31.3486 13.2223 29.9533 10.5039 27.3289C8.48682 25.3768 7.06979 22.803 6.48418 20.0413C6.25282 18.9496 6.16607 16.7445 6.31066 15.6094C6.54201 13.7731 7.19269 11.756 8.02412 10.3462C8.35669 9.78223 8.92784 8.92912 8.95676 8.95804C8.97121 8.9725 8.92061 9.3123 8.84108 9.70994ZM31.7522 12.5874C32.1281 12.6597 32.7138 12.7826 33.0536 12.8693L33.6753 13.0284L33.8271 13.5706C33.9139 13.8743 34.0079 14.2502 34.0296 14.4093C34.0802 14.6696 34.0657 14.7057 33.9139 14.7491C33.8199 14.7708 33.5018 14.7925 33.2054 14.7925C32.4752 14.7925 30.928 15.031 29.9303 15.2913C27.2481 15.9926 24.7899 17.3735 22.7295 19.3328L22.0426 19.9834L21.6305 19.7087C20.9148 19.2171 20.1123 18.5519 19.4905 17.9157C19.1652 17.5831 18.8904 17.2795 18.8904 17.2434C18.8904 17.1132 20.293 15.7902 20.9799 15.2696C22.9825 13.7658 25.3828 12.8043 27.9493 12.4789C28.7229 12.3849 30.9569 12.45 31.7522 12.5874ZM34.2682 17.988C34.232 19.0219 34.044 20.2365 33.7982 21.039L33.6681 21.4728L33.0536 21.6318C30.4291 22.3042 27.7324 22.2247 25.1442 21.3932C24.7104 21.2559 24.32 21.1185 24.2911 21.104C24.1176 21.0028 25.6864 19.7232 26.8432 19.0219C28.8169 17.8217 31.1304 17.1277 33.5307 17.012C33.7693 16.9975 34.044 16.9831 34.138 16.9758L34.3115 16.9614L34.2682 17.988Z" fill="black"/>
</svg>
