<svg width="40" height="40" viewBox="0 0 40 40" fill="none" xmlns="http://www.w3.org/2000/svg">
<path d="M18.1462 4.01725C17.2111 4.1011 16.0179 4.26878 15.3407 4.40422C9.5813 5.57158 4.9828 9.08011 3.53812 13.4206C3.0802 14.7944 3.0415 15.1104 3.00926 17.7031C2.97701 20.1926 3.02216 21.0633 3.25434 22.1984C3.86704 25.1781 5.79544 28.2932 8.36879 30.4602C9.75543 31.634 11.1485 32.4467 13.5026 33.4721C16.2823 34.6846 17.024 35.1103 18.3075 36.2648C19.4039 37.2451 19.5974 37.2451 20.6938 36.2648C21.9772 35.1103 22.7189 34.6846 25.4987 33.4721C27.8527 32.4467 29.2458 31.634 30.6325 30.4602C33.2058 28.2932 35.1342 25.1781 35.7469 22.1984C35.9727 21.0762 36.0242 20.199 35.9985 17.7418C35.9727 15.6651 35.9533 15.3555 35.8243 14.7299C34.7021 9.25425 29.2136 5.04917 22.0159 4.13979C21.2484 4.0366 18.7589 3.96566 18.1462 4.01725ZM21.0808 5.9779C24.4345 6.26813 27.4271 7.33874 29.8392 9.11881C30.5099 9.61542 32.0385 11.0924 32.1997 11.4019C32.2835 11.5696 32.2706 11.589 32.0127 11.8211C30.5744 13.1368 28.2268 14.2655 25.6083 14.9105C23.4348 15.4458 21.9901 15.6135 19.5006 15.6135C17.0111 15.6135 15.5664 15.4458 13.393 14.9105C10.7745 14.2655 8.42684 13.1368 6.9886 11.8211C6.73062 11.589 6.71772 11.5696 6.80156 11.4019C6.9628 11.0924 8.49133 9.61542 9.17498 9.11236C12.3481 6.77119 16.7531 5.61028 21.0808 5.9779ZM6.16306 13.6593C7.14984 14.4719 8.8525 15.42 10.3875 16.0004C14.6958 17.6257 20.094 18.0127 24.9505 17.0388C28.1817 16.3874 30.9807 15.1813 32.8962 13.6141L33.3284 13.2594L33.5089 13.7173C33.7476 14.3171 33.9282 15.0394 34.012 15.7166C34.0958 16.4325 34.0958 19.9927 34.0056 20.7989C33.7153 23.4625 32.3416 26.1132 30.1294 28.2674C29.3297 29.0478 28.8847 29.4089 28.0785 29.9571C27.1562 30.5763 26.4725 30.9246 24.4023 31.8404C23.4284 32.2725 22.3836 32.7562 22.0804 32.9175C21.4742 33.2464 20.4487 33.9365 19.8747 34.4009L19.5006 34.6975L19.133 34.4009C18.5526 33.9365 17.5271 33.2464 16.9208 32.9175C16.6177 32.7562 15.5729 32.2725 14.599 31.8404C13.6251 31.4083 12.5481 30.9117 12.2127 30.7311C8.74286 28.8994 5.99538 25.4876 5.19564 22.0049C4.9828 21.0762 4.92476 20.2958 4.92476 18.2191C4.92476 15.6844 4.9957 15.0717 5.45362 13.8334C5.57616 13.4916 5.6858 13.2916 5.7245 13.3174C5.76319 13.3368 5.96313 13.4916 6.16306 13.6593Z" fill="black" stroke="black" stroke-width="0.5"/>
</svg>
