<svg width="37" height="40" viewBox="0 0 37 40" fill="none" xmlns="http://www.w3.org/2000/svg">
<path d="M8.55042 0.100021C8.08147 0.334492 7.87045 1.06917 8.15963 1.50685C8.48007 1.99143 8.30813 1.9758 12.8725 1.99924L17.0383 2.02269V3.70308V5.39127L17.2962 5.64919C17.4682 5.82114 17.6636 5.92274 17.8668 5.95401C18.8359 6.1025 19.3049 6.33698 19.6409 6.845C20.2037 7.70473 20.1099 8.6348 19.3908 9.35385L19.0313 9.71338L18.9922 9.16627C18.9453 8.55665 18.8594 8.35344 18.5546 8.15023C18.3123 7.99391 17.773 7.97047 17.5229 8.10333C17.2181 8.26746 17.0383 8.65043 17.0383 9.14283C17.0383 9.6743 16.9523 9.71338 16.5928 9.33822C16.288 9.02559 16.0301 8.47067 16.0223 8.12678C16.0223 7.47026 15.6002 7.01695 14.9984 7.01695C14.0292 7.01695 13.7479 7.99391 14.3028 9.45546C14.6936 10.5106 15.7487 11.4641 16.9054 11.8158C17.0227 11.8549 17.0383 11.9799 17.0383 13.0663V14.2699L16.71 14.3872C13.6697 15.4423 0.578365 20.0849 0.461129 20.1474C0.375155 20.1943 0.234472 20.3506 0.156315 20.4835C0.00781574 20.7257 0 20.9602 0 29.9952C0 39.0458 0.00781574 39.2647 0.156315 39.507C0.47676 40.0384 -1.03168 39.9994 17.9918 39.9994C34.2329 39.9994 35.2255 39.9915 35.4756 39.8587C35.6241 39.7883 35.8117 39.6008 35.8899 39.4523C36.0227 39.1943 36.0305 38.7567 36.0305 30.0108C36.0305 19.9833 36.054 20.4913 35.5929 20.1865C35.4522 20.0927 24.1428 16.0598 19.3283 14.3872L18.9922 14.2699V13.0663C18.9922 11.9878 19.0079 11.8549 19.1329 11.8158C19.7347 11.6204 20.4147 11.1984 20.8524 10.7372C22.2358 9.29132 22.3765 7.15763 21.1963 5.58667C20.743 4.99267 20.2037 4.57844 19.5237 4.29707L18.9922 4.08604V3.04655V2.01488L23.0408 2.00706C25.9561 2.00706 27.1597 1.98361 27.3551 1.91327C27.7224 1.78822 27.9803 1.3818 27.9803 0.944118C27.9803 0.67057 27.9334 0.553333 27.7146 0.311047L27.4489 0.021862L18.1169 0.0062294C9.92599 -0.00939941 8.76144 -0.0015831 8.55042 0.100021ZM23.5801 18.0137L29.0667 19.952L23.5644 19.9754C20.5398 19.9833 15.5689 19.9833 12.513 19.9754L6.96382 19.952L12.4114 18.0215C15.4048 16.9586 17.9137 16.091 17.9762 16.091C18.0387 16.0832 20.5632 16.9507 23.5801 18.0137ZM33.9985 29.9952V37.9673H18.0153H2.03209V29.9952V22.0232H18.0153H33.9985V29.9952Z" fill="black"/>
</svg>
