<svg width="40" height="40" viewBox="0 0 40 40" fill="none" xmlns="http://www.w3.org/2000/svg">
<path d="M8.95178 3.48315C7.84501 3.86076 6.97262 4.8243 6.74475 5.92456C6.64058 6.41935 6.64058 33.5938 6.74475 34.0756C6.98564 35.1954 7.90361 36.198 9.00387 36.5365C9.41402 36.6667 9.62887 36.6667 20.2148 36.6667C30.8007 36.6667 31.0156 36.6667 31.4257 36.5365C32.2395 36.2891 33.0143 35.6316 33.3919 34.8829C33.776 34.1147 33.7565 34.7071 33.7565 23.5092C33.7565 16.5235 33.7369 13.1772 33.6914 13.0535C33.6132 12.8451 24.3815 3.5743 24.108 3.42456C23.9583 3.34644 22.858 3.33341 16.6536 3.33341L9.37496 3.33992L8.95178 3.48315ZM22.5716 9.66154C22.5911 13.7957 22.5976 13.9194 22.7213 14.0886C22.7929 14.1863 22.9557 14.323 23.0859 14.3946C23.3203 14.5313 23.3984 14.5313 27.4674 14.5313H31.608V24.0691C31.608 33.4701 31.608 33.6134 31.4778 33.8673C31.3151 34.1928 31.0026 34.4272 30.6315 34.5118C30.2278 34.6029 10.2018 34.6029 9.79814 34.5118C9.42704 34.4272 9.11454 34.1928 8.95178 33.8673C8.82157 33.6134 8.82157 33.4636 8.82157 20.0001C8.82157 6.53654 8.82157 6.3868 8.95178 6.13289C9.10803 5.82039 9.43355 5.56649 9.77209 5.48836C9.91532 5.45581 12.7213 5.42977 16.289 5.42326L22.5586 5.41675L22.5716 9.66154ZM27.4088 9.71362L30.0781 12.3829H27.3893H24.707V9.71362C24.707 8.24227 24.7135 7.04435 24.7265 7.04435C24.733 7.04435 25.944 8.24227 27.4088 9.71362Z" fill="black"/>
<path d="M13.5026 19.603C13.0078 19.7593 12.6888 20.2476 12.7474 20.7619C12.7799 21.0939 12.9362 21.3348 13.2487 21.5431L13.4635 21.6929H20.2148H26.9661L27.181 21.5431C27.4935 21.3348 27.6497 21.0939 27.6823 20.7619C27.7279 20.3647 27.5195 19.9285 27.194 19.7267L26.9531 19.577L20.3125 19.564C16.6602 19.5575 13.5937 19.577 13.5026 19.603Z" fill="black"/>
<path d="M13.3398 26.7712C13.125 26.8558 12.8059 27.2725 12.7539 27.5199C12.6627 28.0081 12.9362 28.542 13.3593 28.7178C13.4961 28.7699 15.3645 28.7894 20.332 28.7764L27.1224 28.7568L27.3763 28.4899C27.8059 28.0277 27.8059 27.4678 27.3763 27.0055L27.1224 26.7386L20.2994 26.7256C16.5494 26.7191 13.4179 26.7386 13.3398 26.7712Z" fill="black"/>
</svg>
