<svg width="40" height="40" viewBox="0 0 40 40" fill="none" xmlns="http://www.w3.org/2000/svg">
<path d="M19.5324 2.13536C18.5961 2.58585 10.9914 6.78967 10.8369 6.94461L10.661 7.1135L10.6397 11.5002C10.6258 13.9083 10.6397 16.0135 10.661 16.1824C10.7032 16.4783 10.7172 16.4923 15.1534 20.1186C17.6034 22.118 19.6873 23.7871 19.8 23.8293C19.934 23.8785 20.0464 23.8785 20.1873 23.8293C20.448 23.7309 28.9959 16.746 29.2001 16.4644L29.355 16.2389L29.341 11.6691L29.3198 7.09918L29.1086 6.91597C28.827 6.66264 20.3636 2.05753 20.0959 2.00833C19.9549 1.98042 19.7717 2.02264 19.5324 2.13536ZM23.5882 5.47272C25.5598 6.54993 27.1723 7.4443 27.1723 7.46523C27.1723 7.53572 20.0959 11.9999 19.9902 11.9999C19.8845 11.9999 12.8081 7.53609 12.8081 7.46559C12.8081 7.43732 19.9127 3.52942 19.9759 3.52244C19.9902 3.52244 21.6166 4.40249 23.5882 5.47272ZM15.822 11.1198L19.2864 13.3238V17.478V21.6253L18.8851 21.3085C18.6597 21.1326 17.0332 19.8017 15.2731 18.3585L12.0694 15.7323L12.0481 12.2256L12.0341 8.71903L12.1891 8.81779C12.2801 8.8736 13.9135 9.90895 15.822 11.1198ZM27.9184 15.6757C27.9044 15.7179 26.3271 17.0345 24.4117 18.5909C22.504 20.1538 20.8846 21.4774 20.821 21.5339C20.7014 21.6327 20.6944 21.4352 20.6944 17.4854V13.3242L24.3064 11.0288L27.9114 8.73335L27.9323 12.1695C27.9396 14.0562 27.9327 15.6331 27.9184 15.6757Z" fill="black" stroke="black" stroke-width="0.6"/>
<path d="M3.95726 8.52243C3.23214 8.67737 2.52796 9.24755 2.20413 9.95174L2 10.3883V16.7605C2 22.6539 2.00698 23.1749 2.12667 23.7311C2.32382 24.6325 2.63369 25.2166 3.3801 26.0618C4.2462 27.0406 5.56279 28.6178 7.94263 31.5469L9.92119 33.9763V35.7508V37.5322L10.1253 37.7576C10.3999 38.0675 10.8152 38.0814 11.1041 37.7928L11.2943 37.6026L11.3152 35.5888C11.3292 34.0116 11.3152 33.5398 11.2378 33.3918C11.1111 33.1242 6.43586 27.3787 5.1402 25.8859C4.00646 24.5833 3.91504 24.4705 3.75312 24.1185C3.42233 23.4003 3.40801 23.1117 3.40801 16.7252C3.40801 10.8178 3.40801 10.7404 3.55597 10.4936C3.99948 9.74026 5.05576 9.74026 5.42878 10.4936C5.54847 10.7191 5.55545 11.0712 5.55545 14.6692V18.598L5.28082 18.9288C5.13286 19.112 4.96397 19.3514 4.90743 19.4711C4.59132 20.1261 4.57003 20.9639 4.85163 21.7243C4.99959 22.1256 5.18243 22.3227 8.15374 25.2941C10.393 27.5403 11.3505 28.4556 11.4984 28.4908C11.8223 28.5683 12.1887 28.3428 12.301 27.9981C12.3502 27.8501 12.3715 27.6599 12.3433 27.5755C12.322 27.4911 10.9422 26.0618 9.28749 24.4001C7.63276 22.7314 6.23871 21.2947 6.18951 21.1963C6.04853 20.9357 6.0768 20.3302 6.23871 20.0626C6.3092 19.9289 6.50636 19.7318 6.66129 19.6191C6.90067 19.4572 7.02734 19.4149 7.33023 19.4149C7.54134 19.4149 7.78807 19.4572 7.87949 19.5064C8.11886 19.626 14.3504 25.8363 14.8079 26.4069C15.6105 27.4136 16.0118 28.3219 16.2655 29.7163C16.3147 30.0049 16.3639 31.5469 16.3921 33.8846L16.4344 37.6023L16.6245 37.7925C16.9201 38.081 17.3287 38.0671 17.6103 37.7502L17.8145 37.5178L17.7932 33.6382C17.7649 29.9697 17.7579 29.7163 17.61 29.0826C17.3141 27.7448 16.8566 26.7167 16.1737 25.7945C15.7093 25.1747 9.21002 18.6476 8.79478 18.38C8.40047 18.1336 7.81597 17.9574 7.37246 17.9574H7.03431V14.486C7.03431 12.5849 7.00604 10.8388 6.96382 10.6064C6.77364 9.43039 5.84439 8.57861 4.64713 8.48682C4.42904 8.47287 4.11954 8.48719 3.95726 8.52243Z" fill="black" stroke="black" stroke-width="0.6"/>
<path d="M34.8611 8.55732C34.3332 8.70528 34.0938 8.84589 33.7274 9.21928C33.347 9.59267 33.115 10.0288 33.0162 10.5572C32.974 10.7826 32.9457 12.3668 32.9457 14.4438V17.9574H32.6076C32.1641 17.9574 31.5796 18.1332 31.1853 18.38C30.7704 18.6476 24.2712 25.1747 23.8067 25.7941C23.1238 26.7164 22.666 27.7444 22.3705 29.0823C22.2225 29.716 22.2155 29.9693 22.1872 33.6378L22.1663 37.5175L22.3705 37.7499C22.6521 38.0667 23.0603 38.0807 23.3562 37.7921L23.5464 37.6019L23.5886 33.8842C23.6169 31.5466 23.6661 30.0045 23.7153 29.716C23.9686 28.3219 24.3699 27.4136 25.1729 26.4065C25.6303 25.836 31.8619 19.626 32.1013 19.506C32.1927 19.4568 32.4394 19.4146 32.6506 19.4146C33.3404 19.4146 33.8827 19.9568 33.8827 20.6607C33.8827 20.8648 33.8405 21.1042 33.7913 21.196C33.7421 21.2944 32.3477 22.731 30.6933 24.3997C27.4404 27.6669 27.4687 27.6387 27.715 28.1174C27.8417 28.3707 28.222 28.554 28.4823 28.4904C28.6233 28.4552 29.644 27.4837 31.827 25.2937C34.7984 22.3224 34.9816 22.1252 35.1295 21.7239C35.4111 20.9636 35.3902 20.1257 35.0734 19.4707C35.0172 19.3511 34.8479 19.1117 34.7003 18.9285L34.4257 18.5977V14.6692C34.4257 11.0712 34.4327 10.7191 34.5524 10.4936C34.9254 9.74026 35.9817 9.74026 36.4252 10.4936C36.5732 10.74 36.5732 10.8175 36.5732 16.7252C36.5732 23.1114 36.5592 23.4003 36.228 24.1185C36.0661 24.4705 35.9747 24.5833 34.841 25.8859C33.5031 27.4349 28.9123 33.082 28.7573 33.3779C28.6586 33.5611 28.6516 33.8706 28.6659 35.5958L28.6872 37.6026L28.8774 37.7928C29.166 38.0814 29.5816 38.0675 29.8562 37.7576L30.0603 37.5322V35.7508V33.9763L32.0389 31.5469C34.4187 28.6178 35.7353 27.0406 36.6018 26.0618C37.3482 25.217 37.6581 24.6325 37.8552 23.7311C37.9749 23.1749 37.9819 22.6539 37.9819 16.7605V10.3883L37.7778 9.95174C37.2762 8.86021 35.9879 8.24047 34.8611 8.55732Z" fill="black" stroke="black" stroke-width="0.6"/>
</svg>
