<svg width="40" height="40" viewBox="0 0 40 40" fill="none" xmlns="http://www.w3.org/2000/svg">
<path d="M11.5266 7.15122C5.09724 10.3659 3.19765 11.3423 3.10466 11.4818C2.99839 11.6478 2.99175 12.1459 3.00503 19.8771L3.02496 28.0998L3.19101 28.2592C3.45668 28.5116 19.7825 37 20.0017 37C20.108 37 20.4401 36.8672 20.7456 36.7078C21.0445 36.5483 24.744 34.6156 28.9617 32.4171C33.1793 30.2186 36.7061 28.3456 36.7991 28.2592L36.9652 28.0998L36.9851 19.8971C36.9984 12.5976 36.9917 11.6677 36.8987 11.495C36.8058 11.3157 35.7298 10.7644 28.4901 7.14458C23.3293 4.56087 20.1213 2.99338 20.0083 3.00002C19.9087 3.00002 16.1627 4.83319 11.5266 7.15122ZM27.3809 8.18072L34.7069 11.8404L31.5985 13.3946L28.4967 14.9488L21.1441 11.2692L13.7849 7.59623L16.8401 6.06194C18.5206 5.21842 19.9353 4.52766 19.9818 4.52766C20.0216 4.52102 23.3559 6.16821 27.3809 8.18072ZM26.8362 15.7459C26.8362 15.7658 25.2953 16.5495 23.4156 17.4927L19.9951 19.1997L12.6425 15.52L5.28321 11.8471L8.73701 10.1135L12.1908 8.38662L19.5102 12.053C23.5418 14.0655 26.8362 15.7259 26.8362 15.7459ZM11.8587 16.7222L19.2645 20.4284V27.7478C19.2645 31.7795 19.2445 35.0738 19.2246 35.0738C19.2047 35.0738 15.8571 33.3337 11.7857 31.2082L4.38655 27.3493V20.1827C4.38655 16.244 4.39984 13.0227 4.41976 13.0227C4.43969 13.0227 7.78722 14.6898 11.8587 16.7222ZM35.6036 20.1893V27.3493L28.2045 31.2149C24.1396 33.3337 20.7921 35.0738 20.7655 35.0738C20.7456 35.0738 20.7257 31.7795 20.7257 27.7478V20.4284L24.2127 18.6816C26.1322 17.7252 27.713 16.9414 27.7329 16.9414C27.7528 16.9414 27.7661 18.4358 27.7661 20.2624C27.7661 23.9088 27.7661 23.942 28.158 24.1412C28.4104 24.2741 28.5831 24.2741 28.8355 24.1412C29.2273 23.942 29.2273 23.9486 29.2273 19.8838V16.1776L32.369 14.6035C34.0892 13.74 35.5239 13.0293 35.5571 13.0293C35.5836 13.0227 35.6036 16.244 35.6036 20.1893Z" fill="black" stroke="black" stroke-width="0.6"/>
</svg>
