<svg width="40" height="40" viewBox="0 0 40 40" fill="none" xmlns="http://www.w3.org/2000/svg">
<g clip-path="url(#clip0_2803_6911)">
<path d="M29.8352 28.7671C30.7413 28.9552 31.62 29.1671 32.5099 29.3099C36.1858 29.9002 36.9536 31.5795 37.4782 34.3279C37.7259 35.8954 37.8936 37.4746 37.9805 39.0594C38.0749 39.473 37.8181 39.8854 37.4068 39.9803C37.3562 39.992 37.3045 39.9985 37.2526 39.9996C36.7758 40.0134 36.473 39.6542 36.4668 39.0594C36.5176 37.3709 36.3163 35.6843 35.8698 34.0559C35.6513 33.466 35.4555 32.4225 34.6921 31.7701C34.0936 31.2585 32.9989 30.994 32.9989 30.994C31 30.5 29.6249 30.277 27.5723 30.114C26.3108 30.0314 24.3497 30.114 24.3497 30.114C22.3984 30.2402 20.5 30.7184 19.864 31.036C19.1048 31.4151 18.5 31.7 18.0531 32.2369C17.4403 32.9733 17.0448 33.8676 16.9116 34.8186C16.7196 36.1498 16.6368 37.4974 16.5108 38.8387C16.4959 38.9978 16.5233 39.1633 16.4959 39.3194C16.4619 39.7075 16.1354 40.003 15.7482 39.9962C15.3577 40.0176 15.0235 39.7176 15.0003 39.325C14.9922 36.8862 15.1394 34.4675 16.2466 32.2292C17.0101 30.7076 18.4599 29.653 20.1358 29.4C21.1328 29.1931 22.1298 28.9894 23.1631 28.7776C23.1356 28.7151 23.101 28.656 23.0602 28.6015C21.819 27.2772 21.128 25.5258 21.1284 23.7057C21.1243 23.6415 21.1243 23.577 21.1284 23.5127C21.1969 21.7746 20.7904 20.0507 19.9532 18.5286C19.6266 17.8492 19.2752 17.1823 18.9474 16.5035C18.7152 16.1743 18.7924 15.7181 19.1196 15.4846C19.166 15.4516 19.2158 15.4242 19.2683 15.4029C21.3241 14.329 23.5161 13.5422 25.7833 13.0644C26.689 12.921 27.6161 13.018 28.4728 13.3458C30.199 13.9638 31.9002 14.652 33.6002 15.3421C34.1822 15.579 34.2888 15.982 34.0102 16.558C33.761 17.0776 33.5118 17.6022 33.2332 18.1062C32.8263 19.0244 32.4822 19.9695 32.2031 20.9348C31.7588 22.063 31.9469 23.1994 31.8067 24.3245C31.6757 25.9233 31.0096 27.4302 29.9173 28.5991C29.8828 28.6513 29.8551 28.7077 29.8352 28.7671ZM22.6982 22.2574C22.5378 23.549 22.6697 24.8602 23.0839 26.0933C23.8115 27.9826 25.9241 28.9209 27.8025 28.1891C28.7322 27.8269 29.474 27.0976 29.8553 26.1711C30.2909 24.9101 30.4453 23.5683 30.3076 22.2405C27.8659 23.2209 25.1442 23.2269 22.6982 22.2574ZM20.6113 16.4429C20.916 17.0558 21.1796 17.6218 21.4837 18.1665C21.5778 18.2994 21.7258 18.383 21.8875 18.3946C24.9559 18.408 28.0242 18.4093 31.0922 18.3984C31.2282 18.4046 31.3603 18.3517 31.4549 18.253C31.7708 17.6663 32.0569 17.0621 32.4177 16.3325C30.7351 15.7553 29.1337 15.1636 27.5041 14.6722C26.9475 14.5291 26.3665 14.5094 25.8016 14.6145C23.9999 14.9949 22.2552 15.6094 20.6113 16.4429ZM22.1854 19.9528C22.1312 20.3261 22.3882 20.673 22.7594 20.7274C22.7717 20.7292 22.7842 20.7308 22.7966 20.7319C23.0459 20.7777 23.2833 20.8823 23.5301 20.9475C24.6855 21.2514 25.8476 21.647 27.0521 21.4489C28.1938 21.2578 29.3142 20.9281 30.439 20.6416C30.8434 20.5382 30.8808 20.4311 30.8035 19.9559L22.1854 19.9528ZM27.5723 30.114C26.3108 30.0314 24.3497 30.114 24.3497 30.114C25.1983 30.0591 26.4141 30.0233 27.5723 30.114Z" fill="black"/>
<path d="M27.5723 30.114C29.6249 30.277 31 30.5 32.9989 30.994C32.9989 30.994 34.0936 31.2585 34.6921 31.7701C35.4555 32.4225 35.6513 33.466 35.8698 34.0559C36.3163 35.6843 36.5176 37.3709 36.4668 39.0594C36.473 39.6542 36.7758 40.0134 37.2526 39.9996C37.3045 39.9985 37.3562 39.992 37.4068 39.9803C37.8181 39.8854 38.0749 39.473 37.9805 39.0594C37.8936 37.4746 37.7259 35.8954 37.4782 34.3279C36.9536 31.5795 36.1858 29.9002 32.5099 29.3099C31.62 29.1671 30.7413 28.9552 29.8352 28.7671C29.8551 28.7077 29.8828 28.6513 29.9173 28.5991C31.0096 27.4302 31.6757 25.9233 31.8067 24.3245C31.9469 23.1994 31.7588 22.063 32.2031 20.9348C32.4822 19.9695 32.8263 19.0244 33.2332 18.1062C33.5118 17.6022 33.761 17.0776 34.0102 16.558C34.2888 15.982 34.1822 15.579 33.6002 15.3421C31.9002 14.652 30.199 13.9638 28.4728 13.3458C27.6161 13.018 26.689 12.921 25.7833 13.0644C23.5161 13.5422 21.3241 14.329 19.2683 15.4029C19.2158 15.4242 19.166 15.4516 19.1196 15.4846C18.7924 15.7181 18.7152 16.1743 18.9474 16.5035C19.2752 17.1823 19.6266 17.8492 19.9532 18.5286C20.7904 20.0507 21.1969 21.7746 21.1284 23.5127C21.1243 23.577 21.1243 23.6415 21.1284 23.7057C21.128 25.5258 21.819 27.2772 23.0602 28.6015C23.101 28.656 23.1356 28.7151 23.1631 28.7776C22.1298 28.9894 21.1328 29.1931 20.1358 29.4C18.4599 29.653 17.0101 30.7076 16.2466 32.2292C15.1394 34.4675 14.9922 36.8862 15.0003 39.325C15.0235 39.7176 15.3577 40.0176 15.7482 39.9962C16.1354 40.003 16.4619 39.7075 16.4959 39.3194C16.5233 39.1633 16.4959 38.9978 16.5108 38.8387C16.6368 37.4974 16.7196 36.1498 16.9116 34.8186C17.0448 33.8676 17.4403 32.9733 18.0531 32.2369C18.5 31.7 19.1048 31.4151 19.864 31.036C20.5 30.7184 22.3984 30.2402 24.3497 30.114M27.5723 30.114C26.3108 30.0314 24.3497 30.114 24.3497 30.114M27.5723 30.114C26.4141 30.0233 25.1983 30.0591 24.3497 30.114M22.6982 22.2574C22.5378 23.549 22.6697 24.8602 23.0839 26.0933C23.8115 27.9826 25.9241 28.9209 27.8025 28.1891C28.7322 27.8269 29.474 27.0976 29.8553 26.1711C30.2909 24.9101 30.4453 23.5683 30.3076 22.2405C27.8659 23.2209 25.1442 23.2269 22.6982 22.2574ZM20.6113 16.4429C20.916 17.0558 21.1796 17.6218 21.4837 18.1665C21.5778 18.2994 21.7258 18.383 21.8875 18.3946C24.9559 18.408 28.0242 18.4093 31.0922 18.3984C31.2282 18.4046 31.3603 18.3517 31.4549 18.253C31.7708 17.6663 32.0569 17.0621 32.4177 16.3325C30.7351 15.7553 29.1337 15.1636 27.5041 14.6722C26.9475 14.5291 26.3665 14.5094 25.8016 14.6145C23.9999 14.9949 22.2552 15.6094 20.6113 16.4429ZM22.1854 19.9528C22.1312 20.3261 22.3882 20.673 22.7594 20.7274C22.7717 20.7292 22.7842 20.7308 22.7966 20.7319C23.0459 20.7777 23.2833 20.8823 23.5301 20.9475C24.6855 21.2514 25.8476 21.647 27.0521 21.4489C28.1938 21.2578 29.3142 20.9281 30.439 20.6416C30.8434 20.5382 30.8808 20.4311 30.8035 19.9559L22.1854 19.9528Z" stroke="black" stroke-width="0.3"/>
<path d="M24.4825 4.54163H1.54224V20.289H17.9859C18.1289 20.2794 18.2726 20.2842 18.4146 20.3033C18.825 20.3708 19.103 20.7582 19.0355 21.1686C18.9847 21.4775 18.7481 21.7228 18.4413 21.7847C18.284 21.8101 18.1242 21.8167 17.9653 21.8045H1.006C0.260278 21.8045 0 21.5523 0 20.8048C0 8.9649 0 15.7956 0 3.95575C0 3.26724 0.266549 3 0.952618 3C8.96807 3 16.9839 3 25.0003 3C25.7459 3 26 3.25791 26 4.00539V10.4164V10.5599C25.9951 11.2434 25.726 11.6076 25.2258 11.5988C24.7442 11.5907 24.4802 11.2371 24.4802 10.5804C24.4802 6.53264 24.4802 9.17286 24.4802 5.12513L24.4825 4.54163Z" fill="black" stroke="black" stroke-width="0.3"/>
<path d="M8.02594 8.00797C9.02498 8.00797 10.024 8.00405 11.023 8.00797C11.7088 8.01189 11.9981 8.30047 11.9981 8.97845C12.0006 10.9765 12.0006 12.9746 11.9981 14.9727C11.9981 15.7286 11.7303 15.9958 10.9776 15.9971C8.97953 16.001 6.98146 16.001 4.98339 15.9971C4.30158 15.9971 4.00836 15.7104 4.00836 15.0259C4.00356 12.9949 4.00356 10.9636 4.00836 8.93164C3.94443 8.48569 4.25406 8.0723 4.70001 8.00829C4.7761 7.99733 4.8533 7.99725 4.92939 8.00797C5.96155 8.00213 6.9937 8.00797 8.02594 8.00797ZM5.61384 14.3779H10.3789V9.62705H5.61384V14.3779Z" fill="black" stroke="black" stroke-width="0.3"/>
<path d="M17.3526 10.4452C16.3987 10.4452 15.4443 10.4452 14.4905 10.4452C13.9275 10.4421 13.5851 10.1475 13.587 9.6852C13.5888 9.22285 13.9344 8.93206 14.4967 8.93152C16.4367 8.92777 18.3767 8.92777 20.3166 8.93152C20.8759 8.93152 21.222 9.23165 21.2201 9.69086C21.2182 10.1501 20.8734 10.4427 20.3103 10.4452C19.3224 10.4507 18.3362 10.4452 17.3526 10.4452Z" fill="black" stroke="black" stroke-width="0.3"/>
<path d="M16.2502 13.5087C15.6463 13.5087 15.0422 13.5143 14.4383 13.5087C14.0201 13.5603 13.6392 13.2631 13.5876 12.8448C13.5359 12.4265 13.8332 12.0456 14.2514 11.994C14.316 11.9861 14.3812 11.9864 14.4457 11.995C15.6532 11.9884 16.861 11.9884 18.069 11.995C18.4876 11.9434 18.8687 12.241 18.9204 12.6595C18.972 13.078 18.6744 13.4593 18.2559 13.5109C18.1913 13.5188 18.1261 13.5186 18.0616 13.5099C17.4582 13.5149 16.8554 13.5087 16.2502 13.5087Z" fill="black" stroke="black" stroke-width="0.3"/>
</g>
<defs>
<clipPath id="clip0_2803_6911">
<rect width="40" height="40" fill="white"/>
</clipPath>
</defs>
</svg>
