<svg width="40" height="40" viewBox="0 0 40 40" fill="none" xmlns="http://www.w3.org/2000/svg">
<path d="M4.81705 7.0537C4.51144 7.12854 4.29938 7.30318 4.14345 7.61503L4 7.88946V19.2534C4 27.137 4.01871 30.6734 4.06861 30.7982C4.15593 31.0352 4.42412 31.3159 4.66737 31.4156C4.83577 31.4905 6.28276 31.503 13.3182 31.503H21.7694L21.7881 33.4863L21.8068 35.476L21.9814 35.7005C22.206 35.9999 22.4742 36.1309 22.8359 36.1309C23.0729 36.1309 23.3411 36.0186 24.5199 35.4323L25.917 34.7338L27.3266 35.4323C28.5116 36.0186 28.7798 36.1309 29.0231 36.1309C29.416 36.1309 29.7341 35.9625 29.9337 35.6631L30.1021 35.4136L30.1208 33.4552L30.1395 31.503H32.6031C34.5553 31.503 35.1042 31.4843 35.2664 31.4156C35.5096 31.3159 35.7778 31.0352 35.8651 30.7982C35.915 30.6734 35.9337 27.137 35.9337 19.2534V7.88946L35.7965 7.61503C35.6281 7.2907 35.4223 7.12854 35.0855 7.0537C34.7861 6.97885 5.11643 6.98509 4.81705 7.0537ZM33.7508 19.2471V29.32H31.942H30.1333V28.2722V27.2243L30.4451 26.9187C31.1312 26.2451 31.7611 25.1162 32.0169 24.1058C32.204 23.3761 32.2164 21.7856 32.048 21.1494C31.6988 19.8708 31.1437 18.9166 30.2705 18.0808C29.4721 17.3199 28.5678 16.8147 27.5137 16.5216C27.0459 16.3968 26.8463 16.3781 25.8921 16.3843C24.8941 16.3843 24.7507 16.403 24.2517 16.5527C21.7257 17.3261 19.9856 19.4031 19.7299 21.9603C19.5427 23.7752 20.1353 25.5029 21.4326 26.9374L21.7756 27.3117V28.3158V29.32H13.9793H6.18297V19.2471V9.1743H19.9669H33.7508V19.2471ZM27.1083 18.6546C27.7944 18.8667 28.2996 19.1785 28.8547 19.7399C29.6655 20.5569 30.0272 21.4426 30.0272 22.584C30.0272 24.5736 28.6676 26.2202 26.7029 26.6131C24.8006 26.9936 22.8609 25.9208 22.1311 24.0809C21.208 21.7357 22.6176 19.1286 25.1124 18.5673C25.6738 18.4426 26.522 18.48 27.1083 18.6546ZM24.7694 28.7337C25.6364 28.9021 27.1395 28.821 27.8068 28.5653L27.9503 28.5092V30.9104V33.3055L27.0958 32.8876C25.9669 32.3325 25.9045 32.3325 24.7881 32.8938C24.3328 33.1246 23.9461 33.3117 23.9274 33.3117C23.8837 33.3117 23.89 28.6027 23.9336 28.5528C23.9523 28.5341 24.0459 28.5466 24.1395 28.5778C24.2268 28.6152 24.5137 28.6838 24.7694 28.7337Z" fill="black"/>
<path d="M8.29737 12.7482C7.90444 12.954 7.7298 13.2783 7.76098 13.7461C7.79217 14.2763 8.09779 14.6255 8.6217 14.7316C9.01463 14.8064 21.5574 14.8002 21.9565 14.7253C22.3619 14.6505 22.6177 14.4758 22.7736 14.164C23.0168 13.69 22.8609 13.0912 22.4181 12.7918L22.1873 12.6359L15.3827 12.6172L8.57804 12.6047L8.29737 12.7482Z" fill="black"/>
<path d="M8.55931 18.2178C8.09777 18.33 7.79839 18.6918 7.75473 19.1783C7.71731 19.6336 7.92937 20.0141 8.3223 20.2074C8.59049 20.3384 8.6591 20.3384 12.5011 20.3384C16.6675 20.3384 16.6612 20.3384 16.9918 20.039C17.4908 19.5837 17.3723 18.6856 16.761 18.3363L16.5053 18.1866L12.6383 18.1741C10.5115 18.1679 8.67781 18.1866 8.55931 18.2178Z" fill="black"/>
<path d="M8.30361 23.9125C7.90443 24.1183 7.7298 24.4427 7.76098 24.9104C7.7984 25.5092 8.15392 25.8522 8.82128 25.9209C9.03334 25.9458 10.4304 25.952 11.9211 25.9396C14.6217 25.9209 14.6342 25.9209 14.8837 25.7774C15.5885 25.372 15.6509 24.4739 15.0022 23.9811L14.7714 23.8003L11.6716 23.7815L8.57804 23.7628L8.30361 23.9125Z" fill="black"/>
</svg>
