<svg width="81" height="54" viewBox="0 0 81 54" fill="none" xmlns="http://www.w3.org/2000/svg">
<path d="M32.2946 11.6514V31.6514H53.2248H63.9225V21.6514H53.2248V11.6514H32.2946Z" fill="#FECA57"/>
<path d="M15.4479 0.953176L15.0417 1.35943V4.50005V7.62505H12.1667H9.29167L8.82292 8.07818C8.55729 8.35943 8.32291 8.7813 8.27604 9.14068C8.21354 9.4688 8.16666 11.5782 8.16666 13.8282V17.9063L6.13541 17.9688C4.16666 18.0157 4.10416 18.0313 3.68229 18.4532C3.24479 18.8751 3.24479 18.8907 3.24479 21.0001V23.1251L3.76041 23.5782C4.04166 23.8282 4.36979 24.0313 4.49479 24.0313C4.69791 24.0313 4.72916 24.5313 4.72916 27.4688V30.9063H3.40104C1.85416 30.9063 1.27604 31.1251 0.885415 31.8751C-0.0677103 33.7188 2.46354 39.7813 5.94791 44.0313C6.47916 44.6719 6.91666 45.3438 6.91666 45.5313C6.91666 45.7032 6.41666 46.9063 5.80729 48.1876C4.80729 50.3282 4.71354 50.5782 4.77604 51.3438C4.82291 51.9376 4.93229 52.2657 5.21354 52.5626C6.05729 53.4688 3.79166 53.4063 37.4635 53.4063C70.5417 53.4063 69.0885 53.4376 69.7604 52.6876C69.901 52.5157 72.401 47.3594 75.2917 41.2188C80.9167 29.2501 81.0104 29.0469 80.4479 27.9532C80.2917 27.6876 79.9635 27.3126 79.6823 27.1563C79.2135 26.8594 78.8542 26.8438 73.4323 26.8438C68.0417 26.8438 67.651 26.8594 67.0885 27.1563C66.4948 27.4532 65.6979 28.2657 65.6354 28.6094C65.6198 28.7188 65.5729 27.2501 65.526 25.3594C65.4323 21.6251 65.401 21.5001 64.4635 20.8907C64.0573 20.6251 63.6354 20.5938 59.4635 20.5938H54.8854V16.0626C54.8854 12.8907 54.8229 11.4219 54.6979 11.1407C54.3073 10.2657 54.5573 10.2813 43.1042 10.2813C35.5417 10.2813 32.4479 10.3282 32.1667 10.4532C31.2917 10.8594 31.2917 10.7969 31.2917 21.2813V30.9063H29.5729H27.8542V27.4688C27.8542 24.5313 27.8854 24.0313 28.0885 24.0313C28.2135 24.0313 28.5417 23.8282 28.8229 23.5782L29.3385 23.1251V21.0001C29.3385 18.8907 29.3385 18.8751 28.901 18.4532C28.4792 18.0313 28.4323 18.0157 26.3698 17.9688L24.2604 17.9063V13.2501V8.5938L23.776 8.10943L23.2917 7.62505H20.4167H17.5417V4.51568C17.5417 1.01568 17.4792 0.812551 16.4167 0.656301C15.9479 0.578176 15.776 0.625051 15.4479 0.953176ZM21.7604 14.0313V17.9376H16.2135H10.6667V14.0313V10.1251H16.2135H21.7604V14.0313ZM41.9167 16.6876V20.5938H37.8542H33.7917V16.6876V12.7813H37.8542H41.9167V16.6876ZM52.3854 16.6876V20.5938H48.401H44.4167V16.6876V12.7813H48.401H52.3854V16.6876ZM26.9167 20.9844V21.5313H20.1979C15.4948 21.5313 13.3698 21.5782 13.1042 21.7032C12.5417 21.9688 12.2917 22.7813 12.6042 23.3751C12.7292 23.6251 12.9635 23.8751 13.0885 23.9376C13.2292 23.9844 16.0573 24.0313 19.3542 24.0313H25.3542V27.4688V30.9063H16.2917H7.22916V27.4688V24.0313H7.93229C9.10416 24.0313 9.68229 23.2344 9.24479 22.2657C8.99479 21.7032 8.46354 21.5313 6.99479 21.5313H5.66666V20.9844V20.4376H16.2917H26.9167V20.9844ZM41.9167 27.0001V30.9063H37.8542H33.7917V27.0001V23.0938H37.8542H41.9167V27.0001ZM52.3854 27.0001V30.9063H48.401H44.4167V27.0001V23.0938H48.401H52.3854V27.0001ZM63.0104 27.0001V30.9063H58.9479H54.8854V27.0001V23.0938H58.9479H63.0104V27.0001ZM77.9792 29.4688C77.9635 29.5469 76.4167 32.8126 74.5729 36.7344L71.2292 43.8751H65.2604C59.4635 43.8751 59.2917 43.8907 58.8854 44.2032C58.3385 44.6251 58.3229 45.5469 58.8385 46.0313C59.1979 46.3594 59.3073 46.3751 64.5885 46.4063L69.9948 46.4532L68.9635 48.6719L67.9323 50.9063H37.6667C21.0104 50.9063 7.38541 50.8751 7.38541 50.8594C7.38541 50.8282 7.79166 49.9219 8.29166 48.8594C8.80729 47.7969 9.26042 46.7969 9.30729 46.6407C9.40104 46.3907 10.6198 46.3751 31.9948 46.3751H54.5885L54.9635 45.9844C55.4792 45.4844 55.4792 44.7657 54.9635 44.2657L54.5885 43.8751H31.7917H8.99479L8.61979 43.3438C8.41666 43.0626 7.69791 42.0938 7.02604 41.2188C5.65104 39.4063 3.97916 36.1876 3.51041 34.4219L3.21354 33.3282L33.6667 33.3751C54.1354 33.4063 64.4167 33.3594 65.0104 33.2501C66.526 32.9688 67.3854 32.1407 67.7135 30.5938C67.8073 30.1251 67.9635 29.6407 68.0417 29.5313C68.1667 29.3907 69.3698 29.3438 73.1198 29.3438C75.8229 29.3438 78.0104 29.4063 77.9792 29.4688Z" fill="black"/>
</svg>
