<svg width="65" height="64" viewBox="0 0 65 64" fill="none" xmlns="http://www.w3.org/2000/svg">
<path d="M35.5002 10.7657L43.6341 18.8996C43.6341 17.0921 44.086 15.2845 44.086 15.2845C44.086 15.2845 54.7052 13.9289 62.6132 29.7448C64.6741 33.8666 61.7094 17.0921 53.5755 9.41007C51.8927 7.82069 46.6467 6.54815 44.086 6.24689V2.63184L35.5002 10.7657Z" fill="#FECA57"/>
<path d="M29.3547 53.433L21.2208 45.2991C21.2208 47.1067 20.7689 48.9142 20.7689 48.9142C20.7689 48.9142 10.1497 50.2698 2.24175 34.454C0.180853 30.3322 3.14552 47.1067 11.2794 54.7887C12.9623 56.378 18.2083 57.6506 20.7689 57.9518V61.5669L29.3547 53.433Z" fill="#FECA57"/>
<path d="M28.3062 0.561009C23.3676 1.23626 18.9586 2.89129 14.8542 5.61877C7.54557 10.4647 2.60697 18.0381 1.04462 26.7766C0.594454 29.279 0.594454 33.5424 1.03138 36.111C2.40836 44.0684 4.95049 49.7882 8.85635 53.7337C10.5643 55.455 12.0605 56.5142 13.9009 57.3086C15.2514 57.8912 17.3698 58.4473 18.7336 58.5664L19.7266 58.6591V60.4862C19.7266 62.1545 19.7531 62.3531 19.9914 62.5914C20.1767 62.7768 20.4283 62.8562 20.8123 62.8562C21.3816 62.8562 21.3816 62.8562 25.8436 58.3811L30.3187 53.9191V53.3233V52.7275L25.8436 48.2655C21.3816 43.7903 21.3816 43.7903 20.8123 43.7903C20.4283 43.7903 20.1767 43.8698 19.9914 44.0551C19.7531 44.2935 19.7266 44.4921 19.7266 46.1206V47.9345L18.9719 47.8418C12.9211 47.1269 7.39993 42.175 3.78535 34.2176L3.32194 33.1982H10.4452H17.5684L17.6479 35.4093C17.7273 37.7263 18.0583 41.1158 18.2834 41.9632C18.429 42.5193 18.7203 42.7311 19.3294 42.7311C20.3489 42.7311 20.5739 42.228 20.3224 40.3876C20.0576 38.5075 19.859 35.8859 19.859 34.4427V33.1982H32.4372H45.0154V34.4163C45.0154 37.4747 44.2077 43.5255 43.4266 46.4649L43.2809 46.968H37.0713C31.0205 46.968 30.8351 46.9812 30.5836 47.2328C30.4114 47.4049 30.3187 47.6697 30.3187 48.0272C30.3187 48.3847 30.4114 48.6495 30.5836 48.8216C30.8351 49.0732 31.0205 49.0864 36.7403 49.0864C40.5137 49.0864 42.6322 49.1394 42.6322 49.2188C42.6322 49.7352 41.1493 53.4425 40.3151 55.018C37.8127 59.7183 34.7939 62.0354 31.709 61.6381C30.7689 61.519 29.286 60.8305 28.4916 60.1685C28.0679 59.811 27.7899 59.6786 27.4589 59.6786C26.8233 59.6786 26.3467 60.1685 26.3467 60.8173C26.3467 61.2145 26.4394 61.3866 26.8895 61.797C27.6442 62.4855 28.8888 63.2005 29.9215 63.5447C30.5836 63.7698 31.2058 63.836 32.6755 63.889C36.5681 63.9949 40.7785 63.1608 44.8433 61.4528C50.285 59.1755 55.2368 55.1504 58.5866 50.278C59.0235 49.6557 59.5002 49.0202 59.6723 48.8613C59.8444 48.7025 59.9768 48.4774 59.9768 48.3582C59.9768 48.2523 60.2416 47.6697 60.5727 47.0607C63.512 41.6189 64.783 34.8929 63.9489 29.0937C62.797 20.9509 60.096 14.6486 56.018 10.5441C53.1714 7.67101 50.2585 6.22782 46.4453 5.75117L45.1478 5.60553V3.77838C45.1478 2.12336 45.1213 1.92475 44.883 1.68643C44.6976 1.50106 44.4461 1.42162 44.0621 1.42162C43.4928 1.42162 43.4928 1.42162 39.0308 5.89682L34.5556 10.3588V10.9546V11.5504L39.0308 16.0123C43.4928 20.4875 43.4928 20.4875 44.0621 20.4875C44.4461 20.4875 44.6976 20.4081 44.883 20.2227C45.1213 19.9844 45.1478 19.7858 45.1478 18.1573V16.3433L45.9157 16.436C47.4913 16.6214 49.7157 17.3496 51.1853 18.1705C55.0912 20.3551 58.5999 24.5655 61.089 30.047L61.5524 31.0797H54.4159H47.2662V29.7689C47.2662 28.2728 47.0809 25.7571 46.8028 23.6122C46.5777 21.9307 46.3527 21.5468 45.5582 21.5468C44.6447 21.56 44.3004 22.1426 44.4858 23.3607C44.7109 24.8038 45.0154 28.4846 45.0154 29.7822V31.0797H32.4372H19.859V29.8484C19.859 26.8031 20.6534 20.7656 21.4478 17.866L21.5934 17.3099H28.0679H34.5556V16.2507V15.1915H28.3989C24.4533 15.1915 22.2422 15.1385 22.2422 15.059C22.2422 14.7942 23.1558 12.2918 23.7648 10.9281C25.6714 6.57206 28.346 3.5533 30.9675 2.78537C32.1459 2.44112 33.6288 2.58676 34.8337 3.16933C35.3765 3.4209 36.1312 3.91079 36.5284 4.24179C37.111 4.73168 37.3493 4.86408 37.7333 4.86408C38.382 4.86408 38.7925 4.42715 38.7925 3.73866C38.7925 3.27525 38.6998 3.14285 38.0378 2.50732C37.1772 1.71291 35.5884 0.878774 34.357 0.561009C33.3772 0.309445 30.1466 0.309445 28.3062 0.561009ZM25.1551 4.22855C23.1823 6.57207 21.6464 9.47167 20.3224 13.3775L19.7266 15.1252L13.9538 15.165L8.19434 15.1915L9.02847 14.1058C12.2194 9.94832 16.6946 6.59855 21.6994 4.59928C22.8248 4.14911 25.4728 3.31497 25.8568 3.28849C25.9098 3.27525 25.592 3.69894 25.1551 4.22855ZM43.0956 7.2076C43.2015 7.65777 43.5722 7.77693 45.2537 7.92257C48.9477 8.21385 51.8871 9.57759 54.4822 12.2124C57.2494 15.0061 59.0765 18.528 60.7183 24.261C60.7713 24.4066 60.427 23.983 59.9768 23.3342C57.2494 19.4283 53.9128 16.6214 50.3909 15.2577C48.577 14.5692 47.1338 14.2646 45.267 14.172C43.6781 14.1058 43.5855 14.1057 43.3074 14.3838C43.0691 14.6221 43.0294 14.8207 43.0294 15.6813V16.7141L40.1562 13.8409L37.2699 10.9546L40.1165 8.10793L42.9632 5.26129L43.0029 6.08218C43.0161 6.54559 43.0558 7.04872 43.0956 7.2076ZM19.144 17.5085C19.0248 17.8263 18.429 20.9774 18.2039 22.5001C17.9127 24.5523 17.6081 28.1404 17.6081 29.716V31.0797H10.2466H2.87177L2.96445 29.8219C3.14982 27.2003 3.87803 23.9962 4.84456 21.5203C5.33445 20.3022 6.52607 17.7865 6.77764 17.4688C6.88356 17.3496 8.30026 17.3099 13.0667 17.3099C18.4423 17.3099 19.2102 17.3364 19.144 17.5085ZM61.9099 34.4163C61.6584 38.1235 60.4402 42.3471 58.6793 45.7102L58.057 46.9018L51.8606 46.9415C45.9952 46.968 45.6642 46.9547 45.7304 46.7429C46.3394 44.7701 47.0941 39.0106 47.2265 35.4093L47.306 33.1982H54.6543H62.0026L61.9099 34.4163ZM6.73792 43.3137C10.4055 47.6168 15.3705 50.1456 20.137 50.1456C21.7126 50.1456 21.845 50.0132 21.845 48.5965V47.5638L24.7181 50.4502L27.6045 53.3233L24.7181 56.1964L21.845 59.0828V58.05C21.845 56.5274 21.8582 56.5407 18.9719 56.3023C18.4555 56.2626 17.5022 56.0773 16.8534 55.9051C11.9281 54.5811 8.14138 50.7017 5.59926 44.3861C5.10937 43.1548 4.83132 42.3207 4.15607 40.0169C4.10311 39.8712 4.44736 40.2817 4.89753 40.9437C5.36093 41.5925 6.18183 42.6649 6.73792 43.3137ZM56.5344 49.1923C56.5344 49.3777 54.7999 51.4961 53.701 52.6348C50.1394 56.3553 45.3596 59.2152 40.421 60.6054C39.6531 60.8305 38.9911 61.0026 38.9646 61.0026C38.9381 61.0026 39.2824 60.5789 39.7193 60.0493C41.7186 57.6793 43.5457 54.1574 44.6844 50.5164C44.8698 49.9073 45.0551 49.338 45.0816 49.2453C45.1213 49.1261 46.3924 49.0864 50.8411 49.0864C53.9658 49.0864 56.5344 49.1261 56.5344 49.1923Z" fill="black"/>
</svg>
