<?xml version="1.0" standalone="no"?>
<!DOCTYPE svg PUBLIC "-//W3C//DTD SVG 20010904//EN"
 "http://www.w3.org/TR/2001/REC-SVG-20010904/DTD/svg10.dtd">
<svg version="1.0" xmlns="http://www.w3.org/2000/svg"
 width="80.000000pt" height="80.000000pt" viewBox="0 0 80.000000 80.000000"
 preserveAspectRatio="xMidYMid meet">
<metadata>
Created by potrace 1.14, written by Peter Selinger 2001-2017
</metadata>
<g transform="translate(0.000000,80.000000) scale(0.100000,-0.100000)"
fill="#000000" stroke="none">
<path d="M327 709 c-89 -20 -179 -96 -218 -185 -46 -104 -20 -265 56 -341 25
-26 89 -55 99 -46 5 6 10 -20 7 -39 0 -5 3 -8 8 -8 11 0 101 86 101 97 0 12
-85 93 -98 93 -7 0 -11 -4 -8 -8 2 -4 1 -14 -3 -20 -18 -29 -109 35 -141 98
l-19 37 70 1 c38 0 70 -4 70 -9 4 -31 7 -51 8 -69 0 -11 6 -20 12 -20 6 0 10
16 9 38 -1 20 -2 42 -1 49 1 8 35 11 124 10 l122 -2 -3 -45 c-5 -90 -5 -90
-77 -90 -37 0 -65 -4 -65 -10 0 -6 27 -10 60 -10 33 0 60 -2 60 -5 0 -13 -30
-77 -42 -89 -29 -29 -56 -37 -82 -24 -27 12 -43 7 -32 -11 11 -18 75 -24 124
-12 144 36 241 146 248 283 6 135 -65 267 -153 284 -23 4 -33 12 -33 25 0 34
-16 28 -65 -21 l-49 -50 44 -45 c48 -49 70 -57 70 -25 0 20 1 20 37 5 48 -20
80 -50 104 -97 l19 -38 -69 0 -70 0 -3 42 c-4 57 -27 63 -25 6 l2 -43 -127 -3
-127 -3 4 23 c2 13 6 45 10 71 6 45 8 48 33 47 57 -4 102 0 102 10 0 6 -27 10
-60 10 -33 0 -60 2 -60 5 0 13 34 72 53 93 22 23 56 28 87 12 12 -6 21 -7 25
-1 15 26 -72 44 -138 30z m-22 -69 c-14 -22 -25 -46 -25 -55 0 -12 -12 -15
-55 -15 -30 0 -55 4 -55 9 0 12 77 73 110 88 46 21 51 15 25 -27z m-42 -101
c2 -2 -1 -32 -6 -66 l-9 -63 -73 0 c-82 0 -78 -5 -53 80 16 54 24 60 84 57 29
-2 55 -5 57 -8z m431 -164 c3 -9 -4 -40 -15 -70 l-20 -55 -61 0 -60 0 6 53 c3
28 6 59 6 68 0 24 135 27 144 4z m-75 -174 c-20 -28 -69 -60 -120 -79 l-24
-10 29 59 29 59 54 0 54 0 -22 -29z"/>
</g>
</svg>
